<?xml version="1.0" encoding="utf-8"?>
<!-- Generator: Adobe Illustrator 22.1.0, SVG Export Plug-In . SVG Version: 6.00 Build 0)  -->
<svg version="1.1" id="Layer_1" xmlns="http://www.w3.org/2000/svg"
	xmlns:xlink="http://www.w3.org/1999/xlink" x="0px" y="0px"
	viewBox="0 0 1600 1600" style="enable-background:new 0 0 1600 1600;" xml:space="preserve">
<style type="text/css">
	.st0{fill:#ffffff;}
</style>
<g>
	<g>
		<path class="st0" d="M830,1250c-52.2,0-102.6-10.6-149.9-31.4c-134-59-220.5-191.2-220.5-336.7c0-103.2,43.1-202.9,118.2-273.6
			c70-65.9,159.8-99.4,252.9-94.5c35.5,1.9,128.5,14.1,205.4,86.7c33.9,32,60,71.3,77.5,116.8c19.8,51.5,28.7,111.3,26.4,177.6
			c-1.9,53.8-18.9,105.2-47.9,144.7c-30.1,40.8-68.8,63.3-109.1,63.3c-29.5,0-58-11.9-82.3-34.3c-15.8-14.6-29.3-33.2-39.9-54.7
			c-10.6,21.5-24.1,40.1-39.9,54.7c-24.3,22.5-52.7,34.3-82.3,34.3c-40.4,0-78.1-22-106.1-61.8c-27-38.4-41.8-89.3-41.8-143.2
			c0-53.9,14.9-104.8,41.8-143.2c28-39.9,63.5-61.8,104-61.8c7.3,0,15.3,5.8,15.3,13.1s-5.9,13.1-13.1,13.1
			c-31.6,0-61.6,18-84.5,50.6c-23.9,34.1-37.1,79.6-37.1,128.3c0,48.6,13.2,94.2,37.1,128.3c22.9,32.7,52.9,50.6,84.5,50.6
			c46.3,0,89.4-39.9,109.7-101.8c1.8-5.4,6.8-9,12.5-9c5.7,0,10.7,3.6,12.5,9c20.3,61.8,63.3,101.8,109.7,101.8
			c31.7,0,62.9-18.7,87.9-52.6c25.6-34.8,41.2-82.2,42.9-130.1c9.2-267.1-175.3-348.3-284.5-354.1c-85.8-4.6-168.8,26.4-233.4,87.4
			c-69.9,65.8-110,158.7-110,254.7c0,135.2,80.4,258,204.9,312.8c43.9,19.3,90.8,29.2,139.3,29.2c7.3,0,13.1,5.8,13.1,13.1
			S837.2,1250,830,1250z"/>
	</g>
	<g>
		<path class="st0" d="M1257.9,799.2c0,6.8-5.7,12.3-12.6,12.3c-7,0-12.6-5.5-12.6-12.3c0-4.6-0.1-9.2-0.2-13.8
			c-6.6-235.2-181.6-410.8-412.2-410.8c-240.6,0-444.5,186.7-452.6,410.8c-0.2,4.6-0.3,9.2-0.3,13.8c0,6.8-5.7,12.3-12.6,12.3
			c-7,0-12.6-5.5-12.6-12.3c0-2.3,0-4.6,0.1-7c0.1-0.3,0.1-0.7,0.1-1c0-2.7,0.1-2.8,0.1-5.3c0-0.2,0-0.3,0-0.5
			c1.8-55.6,15-109.9,39-161.4c24.9-53.2,60.3-101.2,105.2-142.7c44.5-41.1,95.7-73.4,152.4-96.1c58.4-23.4,119.4-35.3,181.3-35.3
			c121.2,0,232.8,46.8,314,131.9c76.7,80.3,120.3,187.7,123.5,303.6c0,0.8,0.1,1.6,0.1,2.3c0,0.5,0,0.9,0,1.4c0,0.7,0,1.4,0,2
			C1257.8,793.9,1257.9,796.6,1257.9,799.2z"/>
	</g>
	<g>
		<path class="st0" d="M423.8,671.2l6.1-10.4l30.1,7.4l10.5,2.7l-7.8-7.4l-22.3-20.8l6.5-11.2l29.1,9.1l10.3,3.1
			c-2.6-2.6-5.1-5.2-7.6-7.8l-21.2-22.6l6-10.3l39.3,42.6l-6.6,11.4l-27.5-8l-12.1-4.3c3.8,3,7,5.8,9.7,8.4l20.5,20l-6.6,11.4
			L423.8,671.2z"/>
		<path class="st0" d="M473.2,592l7.8-9.1l16.4,14.1l15.4-18l-16.4-14.1l7.8-9.1l42,36.1l-7.8,9.1l-17.8-15.3l-15.4,18L523,619
			l-7.8,9.1L473.2,592z"/>
		<path class="st0" d="M516.1,544.6l8.7-8.2l38,40.3l-8.7,8.2L516.1,544.6z"/>
		<path class="st0" d="M554.3,524.7l-14.8,11.5l-6.3-8.1l39.1-30.4l6.3,8.1l-14.8,11.5l27.7,35.6l-9.4,7.4L554.3,524.7z"/>
		<path class="st0" d="M583.4,490.5l37.7-22l5.2,8.9l-27.4,16l5.7,9.8l26-15.1l5.1,8.8l-26,15.1l6.8,11.6l28.4-16.5l5.2,8.9
			l-38.7,22.6L583.4,490.5z"/>
		<path class="st0" d="M667.3,456.4c3.5-7,9.2-11.9,17.2-14.6c6.6-2.2,13.1-2.3,19.2-0.2l-4,9.9c-3.5-1.1-7.2-1-11,0.3
			c-5,1.7-8.4,4.7-10.4,9c-2,4.3-2.2,8.8-0.6,13.4c1.6,4.6,4.4,8.1,8.6,10.4c4.2,2.3,8.5,2.6,13.1,1.1c4.7-1.6,8.1-4.3,10.3-8.2
			l9.5,5.4c-3.6,6.2-9,10.5-16.4,13.1c-8,2.7-15.5,2.3-22.5-1.1c-7-3.5-11.8-9-14.4-16.6C663.4,470.7,663.8,463.4,667.3,456.4z"/>
		<path class="st0" d="M715,434.1l11.7-2.6l12.2,54.1l-11.7,2.6L715,434.1z"/>
		<path class="st0" d="M758.4,436.5l-18.7,2.1l-1.2-10.2l49.3-5.6l1.2,10.2l-18.7,2.1l5.1,44.9l-11.9,1.4L758.4,436.5z"/>
		<path class="st0" d="M816.3,453.6l-19.8-31.1l13.8,0.5l6,9.5l6.4,11l7.2-10.5l6.4-9l13.8,0.5l-21.8,29.4l-0.9,25.2l-12-0.4
			L816.3,453.6z"/>
		<path class="st0" d="M881.1,470.1c4.5,5.4,9.9,8.9,16.2,10.5c2.8,0.7,5.4,0.7,7.8,0c2.4-0.7,3.8-2,4.2-3.8
			c0.4-1.8-0.1-3.3-1.6-4.7c-1.5-1.4-3.7-2.8-6.7-4.3c-2.2-1.1-4.1-2.2-5.6-3.1c-1.6-0.9-3.2-2-4.9-3.4c-1.7-1.4-3-2.8-4-4.2
			c-0.9-1.4-1.6-3.1-2-5c-0.4-1.9-0.3-4,0.2-6.1c1.2-4.9,4.2-8.2,8.8-10c4.6-1.7,9.7-1.9,15.2-0.5c7.4,1.9,13.4,5.4,18.2,10.7
			l-6.5,7.9c-4-4.1-8.8-6.9-14.3-8.3c-2-0.5-4-0.6-6-0.3c-2,0.3-3.2,1.4-3.7,3.3c-0.4,1.6,0.1,3,1.5,4.3c1.4,1.3,3.7,2.7,6.9,4.3
			c12.9,6.5,18.3,13.9,16.1,22.3c-1.4,5.4-4.6,9-9.7,10.8c-5.1,1.8-10.7,1.9-16.6,0.4c-8.7-2.2-15.3-6.5-20-12.8L881.1,470.1z"/>
		<path class="st0" d="M953.1,460.9l-17.5-6.8l3.7-9.6l46.2,18l-3.7,9.6l-17.5-6.8l-16.4,42.1l-11.2-4.3L953.1,460.9z"/>
		<path class="st0" d="M978.5,514.9c-1.9-5.9-1.2-11.8,2.1-17.6l16.6-29.2l10.3,5.8l-16.3,28.8c-1.8,3.1-2.2,6.3-1.3,9.4
			c0.9,3.1,2.8,5.5,5.7,7.2c2.9,1.7,6,2,9.1,1.2c3.1-0.9,5.6-2.9,7.3-6l16.3-28.8l10.3,5.9l-16.6,29.2c-3.3,5.8-8,9.4-14,10.8
			c-6.1,1.4-12,0.5-17.8-2.8C984.3,525.4,980.4,520.8,978.5,514.9z"/>
		<path class="st0" d="M1053.6,501.6l17.1,14c6.9,5.6,10.7,12.2,11.6,19.8c0.8,7.6-1.2,14.4-6.2,20.4c-4.9,6-11.2,9.4-18.8,10.1
			c-7.6,0.7-14.8-1.8-21.7-7.4l-17.1-14L1053.6,501.6z M1041.9,550.4c4.1,3.3,8.4,4.7,12.9,4.2c4.6-0.5,8.5-2.7,11.7-6.6
			c3.2-3.9,4.6-8.2,4.2-12.8c-0.4-4.6-2.7-8.5-6.7-11.8l-7.6-6.2l-22.1,27L1041.9,550.4z"/>
		<path class="st0" d="M1103.7,545.6l8.2,8.7l-40.4,37.9l-8.2-8.7L1103.7,545.6z"/>
		<path class="st0" d="M1121.5,576.4c7.7,1.4,14,5.6,18.8,12.5c4.8,6.9,6.6,14.2,5.2,22c-1.4,7.7-5.3,13.9-11.9,18.4
			c-6.6,4.6-13.7,6.2-21.5,4.8c-7.7-1.4-14-5.6-18.8-12.5c-4.8-6.9-6.6-14.2-5.2-22c1.4-7.7,5.3-13.9,11.9-18.5
			C1106.7,576.5,1113.8,575,1121.5,576.4z M1099.7,602.5c-1,4.6-0.1,8.9,2.6,12.9c2.7,3.9,6.4,6.2,11.1,6.8c4.7,0.6,9-0.5,13-3.3
			c4-2.8,6.5-6.5,7.5-11.1c1-4.6,0.2-8.9-2.6-12.8c-2.8-4-6.5-6.3-11.2-6.9c-4.7-0.7-9,0.4-13,3.2
			C1103.3,594.1,1100.7,597.9,1099.7,602.5z"/>
		<path class="st0" d="M1127.9,644.9c-1.4,6.9-0.7,13.3,2,19.2c1.2,2.6,2.8,4.7,4.9,6.1c2,1.4,3.9,1.7,5.6,0.9
			c1.7-0.8,2.6-2.2,2.7-4.2s-0.2-4.7-0.9-7.9c-0.5-2.4-0.8-4.5-1.1-6.3s-0.4-3.8-0.4-6c0-2.2,0.3-4.1,0.8-5.7
			c0.5-1.6,1.4-3.2,2.7-4.7c1.3-1.5,2.9-2.7,4.9-3.6c4.6-2.1,9-1.9,13.3,0.6c4.2,2.5,7.5,6.4,9.9,11.6c3.1,6.9,4.1,13.9,3,20.9
			l-10.2-0.1c0.7-5.7-0.1-11.2-2.5-16.4c-0.8-1.9-2-3.5-3.5-4.8c-1.5-1.4-3.1-1.6-4.9-0.8c-1.5,0.7-2.3,2-2.4,3.8
			c-0.1,1.9,0.2,4.6,1,8.1c3,14.1,0.5,23-7.4,26.5c-5.1,2.3-9.9,2-14.5-0.9c-4.6-2.9-8.1-7.2-10.7-12.8c-3.7-8.1-4.5-16-2.5-23.6
			L1127.9,644.9z"/>
	</g>
	<path class="st0" d="M1199.9,880.3c0,31.7,0,63.4,0,95c0,8.8-5.4,14-13.4,13.4c-5.8-0.4-10.4-4.7-11.1-10.6
		c-0.2-1.8-0.2-3.7-0.2-5.6c0-61.7,0-123.3,0-185c0-10.7,4.2-16.2,12.2-16.4c8.2-0.1,12.5,5.5,12.5,16.5
		C1199.9,818.6,1199.9,849.4,1199.9,880.3z"/>
	<path class="st0" d="M1291.8,903.6c0,10.2-4.1,18.5-12,25.1c-1.7,1.4-3.1,3.6-3.6,5.6c-6.7,24.9-26.4,40.2-52.1,40.4
		c-3.8,0-7.7,0-11.8,0V785.4l20.1,0l25.3,0c0,0.8,0.1,1.6,0.1,2.3c0,0.5,0,0.9,0,1.4c0,0.5,0,1.1,0,2c0,2.5,1.3,5.5,3.1,7.3
		c7.4,7.5,12.6,16.1,15.3,26.3c0.6,2.2,2.1,4.5,3.9,6c7.7,6.5,11.7,14.7,11.8,24.7C1291.9,871.5,1291.9,887.6,1291.8,903.6z"/>
	<path class="st0" d="M399.2,880.3c0,31.7,0,63.4,0,95c0,8.8,5.4,14,13.4,13.4c5.8-0.4,10.4-4.7,11.1-10.6c0.2-1.8,0.2-3.7,0.2-5.6
		c0-61.7,0-123.3,0-185c0-10.7-4.2-16.2-12.2-16.4c-8.2-0.1-12.5,5.5-12.5,16.5C399.2,818.6,399.2,849.4,399.2,880.3z"/>
	<path class="st0" d="M387.7,785.4v189.2c-4.1,0-8,0-11.8,0c-25.7-0.1-45.4-15.5-52.1-40.4c-0.6-2.1-2-4.3-3.6-5.6
		c-8-6.5-12-14.9-12-25.1c-0.1-16-0.1-32,0-48c0.1-10,4-18.2,11.8-24.7c1.7-1.5,3.3-3.8,3.9-6c2.6-10.3,7.8-18.8,15.3-26.3
		c1.5-1.5,2.7-4,3-6.3c0.1-0.3,0.1-0.7,0.1-1c0-2.7,0.1-2.8,0.1-5.3v-0.5h0l25.3,0L387.7,785.4z"/>
	<g>
		<path class="st0" d="M890.8,851.5c0-30.5,0-12.5,0-43c0-8.3,5.4-13.4,12.4-12c4.8,0.9,7.7,4,8.5,8.7c0.4,2.1,0.3,4.3,0.3,6.5
			c0,58.9,0,18,0,76.9c0,10.3-3.5,15.3-10.6,15.5c-7.1,0.1-10.7-4.9-10.7-15.2C890.8,859.3,890.8,881.2,890.8,851.5z"/>
		<path class="st0" d="M790.5,847.6c0,24.7,0,49.5,0,74.2c0,5.5-1.7,9.7-7.1,11.8c-6.8,2.6-13.8-2.2-14.3-9.7
			c-0.3-4.7-0.1-9.5-0.1-14.2c0-44.3,0-70.2,0-114.6c0-1.8-0.1-3.6,0.1-5.3c0.5-6.1,5.2-10.6,10.8-10.5c5.7,0.1,10.3,4.6,10.4,10.8
			c0.2,12.1,0.1,5.8,0.1,17.8C790.5,821.1,790.5,834.3,790.5,847.6z"/>
		<path class="st0" d="M930.5,857.6c0-19.8-0.3-39.6,0.2-59.3c0.1-3.9,2-8.8,4.8-11.2c6-5.3,15.5-0.7,16.3,7.4
			c0.5,4.7,0.2,9.5,0.2,14.2c0,35.2,0,70.4,0,105.6c0,1.6,0.1,3.2,0,4.7c-0.4,6.4-4.5,10.7-10.2,11c-5.9,0.2-10.8-4.2-11.2-10.7
			c-0.3-6.3-0.1-12.7-0.1-19C930.5,886.1,930.5,871.9,930.5,857.6z"/>
		<path class="st0" d="M872,878.2c0,15.2,0.1,30.4,0,45.7c0,6.9-3.2,11.1-8.8,12.3c-6.8,1.5-12.6-3.8-12.6-11.9
			c-0.1-26.7,0-53.4,0-80.1c0-4.5-0.1-71.6,0-76.1c0.2-6.6,4.5-11.2,10.4-11.4c6.1-0.1,10.8,4.5,10.9,11.6
			C872.1,784.1,872,862.4,872,878.2z"/>
		<path class="st0" d="M971.5,856.4c0-11.7-0.1-23.3,0-35c0.1-7.2,4.2-11.9,10.3-12.1c6.2-0.2,11.1,4.8,11.1,12
			c0.1,23.7,0.1,47.4,0,71.1c0,7-4.6,11.7-10.8,11.7c-6.2,0-10.6-4.6-10.7-11.6C971.4,880.5,971.5,868.4,971.5,856.4z"/>
		<path class="st0" d="M750.1,856.7c0,11.7,0.1,23.3,0,35c-0.1,7.6-4.2,12.3-10.5,12.4c-6.6,0.1-10.9-4.8-11-12.7
			c0-23.1,0-46.2,0-69.4c0-7.7,4.5-12.9,10.9-12.8c6.3,0.1,10.5,4.9,10.6,12.5C750.2,833.4,750.1,845.1,750.1,856.7z"/>
		<path class="st0" d="M831.1,857.5c0,11.5,0.1,23,0,34.4c-0.1,7.6-4.3,12.3-10.7,12.2c-6.4-0.1-10.5-4.8-10.5-12.5
			c-0.1-23.4-0.1-46.7,0-70.1c0-7.5,4.5-12.4,10.7-12.3c6.3,0.1,10.4,4.9,10.5,12.6C831.1,833.7,831.1,845.6,831.1,857.5z"/>
	</g>
</g>
</svg>