<svg xmlns="http://www.w3.org/2000/svg" height="800" width="1200" viewBox="-299.3145 -194.253 2594.059 1165.518"><path d="M722.984 13.492h159.52V205.61h16.898l201.153-192.117h217.222L1035.84 269.098l314.914 267.148h-221.348L899.402 335.473h-16.898v200.773h-159.52zm-472.37 317.446h179.3L338.82 134.699zm0 0h179.3L338.82 134.699zm0 0h179.3L338.82 134.699zm-2.887-317.446h182.601l251.438 522.344H525.957l-43.691-92.348H197.852l-41.22 92.348H0zm0 0h182.601l251.438 522.344H525.957l-43.691-92.348H197.852l-41.22 92.348H0zm0 0h182.601l251.438 522.344H525.957l-43.691-92.348H197.852l-41.22 92.348H0zm1644.238 143.469l20.61-130.687A1422.942 1422.942 0 001691.636.3c-88.207-2.063-163.64 7.008-186.723 11.129-42.867 7.422-78.73 21.441-107.172 42.054a183.431 183.431 0 00-63.476 84.102c-14.016 35.867-21.02 81.215-21.02 136.871 0 55.656 7.004 101.008 21.02 136.05a184.211 184.211 0 0063.066 82.864c28.027 19.79 63.89 33.809 106.758 40.817a997.617 997.617 0 00155.394 11.128c112.118 0 237.426-31.332 260.918-41.226V261.676h-241.129v98.945h104.696v42.875a747.594 747.594 0 01-124.485 14.02c-186.308 4.945-199.086-67.614-199.086-144.707 0-68.438 23.907-124.918 110.055-136.047 86.149-11.133 195.793-5.36 321.512 20.199M914.242 607.57v66.786h-79.555V607.57H802.54v150.477h32.148V687.96h79.555v54.008a18.76 18.76 0 002.063 8.246 14.206 14.206 0 004.945 4.945 18.275 18.275 0 006.594 2.477c2.043.34 4.113.48 6.183.41h12.368V607.57zm628.594 150.067v-150.48h-31.328l-63.063 111.312-64.304-111.313h-31.739v150.48h16.489v-116.67l67.597 116.672h8.246l65.95-115.848v99.356a18.76 18.76 0 002.062 8.246 14.205 14.205 0 004.945 4.945 18.275 18.275 0 006.594 2.477c2.043.34 4.117.476 6.184.41zm201.973 0l-80.375-153.778h-9.48l-82.442 153.778h18.96l25.56-47.824h58.53l-8.246-15.254h-42.043l27.207-50.711 53.172 101.832a18.614 18.614 0 007.832 9.07 20.599 20.599 0 0011.954 2.887zM1912.16 607.57a7.046 7.046 0 00-2.887.41 4.722 4.722 0 00-3.296 1.239 7.787 7.787 0 00-3.707 6.597V712.7l-107.172-105.13h-20.61v150.477h18.961V644.676l108.82 109.66c4.532 4.125 10.715 3.71 16.485 3.71h2.062V607.57zm-843.758-3.296h-9.48l-82.438 153.773h18.961l61.004-113.785 25.969 50.297h-42.457l-8.242 15.254h58.941l18.55 35.867a18.626 18.626 0 007.829 9.07 20.618 20.618 0 0011.957 2.887h19.785zm206.922 141.406l-47.402-56.48h-16.488v68.847h-32.153V607.57h58.946s24.316-.414 40.394 7.422c16.074 7.832 22.668 18.551 22.668 32.567 0 14.02-8.652 30.097-39.156 38.343l61.418 71.735h-24.735a35.347 35.347 0 01-11.128-2.063c-5.77-1.648-12.364-9.894-12.364-9.894m-64.304-124.918v56.894h14.84s14.84.41 24.32-5.36c9.48-5.772 16.488-12.78 16.488-23.913a28.284 28.284 0 00-17.727-25.149 37.73 37.73 0 00-16.488-2.882h-21.433zM675.172 687.55h4.945v28.86a21.517 21.517 0 0116.074-7.011c11.954 0 20.2 8.66 20.2 21.437 0 14.844-9.895 24.324-25.145 24.324a43.104 43.104 0 01-16.074-3.297zm4.945 61.016a35.234 35.234 0 0011.13 2.06 19.354 19.354 0 0013.944-5.087 19.362 19.362 0 006.25-13.465v-.824c0-10.305-6.593-17.726-15.66-17.726-5.773 0-10.304 2.472-15.664 8.656zm50.699 28.446h-4.945l15.66-31.332-18.957-35.043h4.946l16.488 30.508 15.66-30.508h4.95zm1233.692-675.293a30.871 30.871 0 01-21.844-9.07 31.868 31.868 0 01-9.07-22.262 30.921 30.921 0 0119.09-28.543 30.908 30.908 0 0133.671 6.691 30.846 30.846 0 010 43.7 31.277 31.277 0 01-21.847 9.484m0-56.895c-14 .117-25.254 11.559-25.14 25.563.112 14 11.554 25.258 25.554 25.144 14-.113 25.258-11.554 25.144-25.558a25.631 25.631 0 00-7.421-17.727 22.796 22.796 0 00-18.137-7.422m7.832 42.875v-.41l-.41-1.648v-2.887c0-3.711-.825-6.184-2.887-7.008a16.462 16.462 0 00-6.184-1.238h-4.12v13.191h-7.009V53.07h12.368c3.199-.023 6.39.395 9.48 1.239a8.907 8.907 0 015.36 9.07 6.936 6.936 0 01-3.711 7.008l-2.473 1.234a6.617 6.617 0 013.707 2.887 8.718 8.718 0 012.062 5.36v4.948c0 .825 0 1.235.415 1.649l.41 1.234zm-9.067-18.55c1.809-.07 3.61-.348 5.356-.825a4.447 4.447 0 002.887-4.535 6.641 6.641 0 00-2.059-4.535 19.266 19.266 0 00-7.008-1.234h-4.535v10.718h5.36zm0 0"/></svg>