<svg xmlns="http://www.w3.org/2000/svg" viewBox="0 0 469.07 47.49"><g id="beyerdynamic"><path d="M170,51.05a13.91,13.91,0,0,1-14.31,14.37,13,13,0,0,1-8.52-3l-.87,2.27h-5.44v-37h7.36V38.92a13.08,13.08,0,0,1,7.47-2.25A13.92,13.92,0,0,1,170,51.05m-14.91,7.41a7.44,7.44,0,1,0-7.42-7.41,7.22,7.22,0,0,0,7.42,7.41" transform="translate(-14.97 -26.97)"/><path d="M199.49,53.11h-20.6c.64,3.71,3.08,5.76,6.65,5.76a6.44,6.44,0,0,0,5.77-3.16h7.74a14.17,14.17,0,0,1-27.62-4.66c0-8.2,6-14.38,14.11-14.38,8.36,0,14.09,6.44,14.09,14.28a17.41,17.41,0,0,1-.14,2.16m-20.4-5h13.18A6.7,6.7,0,0,0,185.54,43a6.38,6.38,0,0,0-6.45,5.13" transform="translate(-14.97 -26.97)"/><path d="M228.36,37.44,216.5,64.29c-3.26,7.38-6.13,10.17-12.23,10.17h-3V67.85h2.55c3.55,0,4.47-.95,6.14-5.06l.11-.22L198.5,37.44h8l7.26,16.74,6.78-16.74Z" transform="translate(-14.97 -26.97)"/><path d="M255.17,53.11h-20.6c.64,3.71,3.08,5.76,6.65,5.76A6.45,6.45,0,0,0,247,55.71h7.73a14.17,14.17,0,0,1-27.61-4.66c0-8.2,6-14.38,14.11-14.38,8.36,0,14.09,6.44,14.09,14.28a17.41,17.41,0,0,1-.14,2.16m-20.41-5H248A6.7,6.7,0,0,0,241.22,43a6.4,6.4,0,0,0-6.46,5.13" transform="translate(-14.97 -26.97)"/><path d="M274.81,37.29v6.94h-3.19c-4.15,0-5.79,1.84-5.79,6.29V64.65h-7.36V37.44h4.72l1.31,3.34c1.93-2.41,4.39-3.49,7.89-3.49Z" transform="translate(-14.97 -26.97)"/><path d="M303.65,27.63v37h-5.43l-.87-2.26a13,13,0,0,1-8.52,3.07,14,14,0,0,1-14.31-14.41,13.94,13.94,0,0,1,14.31-14.38,13.13,13.13,0,0,1,7.47,2.26V27.63Zm-6.8,23.42a7.42,7.42,0,1,0-7.42,7.46,7.24,7.24,0,0,0,7.42-7.46" transform="translate(-14.97 -26.97)"/><path d="M335.29,37.44,323.43,64.29c-3.26,7.38-6.13,10.17-12.24,10.17h-3V67.85h2.55c3.54,0,4.46-.95,6.14-5.06l.1-.22L305.42,37.44h8l7.26,16.74,6.77-16.74Z" transform="translate(-14.97 -26.97)"/><path d="M362.49,48.16V64.65h-7.35V49.35c0-4.11-1.57-6.09-4.75-6.09-3.79,0-6.11,2.71-6.11,7.09v14.3h-7.35V37.44h5l1.44,3.37a11.66,11.66,0,0,1,9-4c6.21,0,10.07,4.47,10.07,11.36" transform="translate(-14.97 -26.97)"/><path d="M394.86,37.4V64.61H389.1l-.64-2.43a13.23,13.23,0,0,1-8.82,3.24A14,14,0,0,1,365.37,51a13.94,13.94,0,0,1,14.27-14.34A13.33,13.33,0,0,1,388.59,40l.78-2.6ZM387.65,51a7.41,7.41,0,1,0-7.4,7.46,7.22,7.22,0,0,0,7.4-7.46" transform="translate(-14.97 -26.97)"/><path d="M440.4,47.59V64.65H433V48.8c0-3.63-1.42-5.54-4.09-5.54-3.28,0-5.23,2.41-5.23,6.68V64.65h-7.17V48.8c0-3.63-1.38-5.54-4-5.54-3.33,0-5.31,2.41-5.31,6.68V64.65h-7.36V37.44H405l1.38,3.38a10.45,10.45,0,0,1,8.12-4,8.81,8.81,0,0,1,7.9,4.35,10.3,10.3,0,0,1,8.42-4.35c5.63,0,9.58,4.41,9.58,10.79" transform="translate(-14.97 -26.97)"/><path d="M445.06,64.65h7.35V37.44h-7.35Zm0-30.84h7.33V27h-7.33Z" transform="translate(-14.97 -26.97)"/><path d="M470.07,65.42A14.21,14.21,0,0,1,455.62,51a14.07,14.07,0,0,1,14.49-14.3A13.63,13.63,0,0,1,484,47.84h-7.31a7,7,0,0,0-6.58-4.25c-4,0-7,3.2-7,7.42s3.06,7.49,7,7.49a6.93,6.93,0,0,0,6.57-4.56H484a13.81,13.81,0,0,1-14,11.48" transform="translate(-14.97 -26.97)"/></g><g id="Y-Sign"><path d="M44.63,74.45H40.25V67.39H42c5,0,7.81-1.94,11.89-5.09,1.57-1.24,2.72-2.21,3.38-2.78L15,27.69H27l.2.15c1.34,1,31.2,23.57,31.5,23.8a7.47,7.47,0,0,0,4.84,1.66h.07a8,8,0,0,0,4.66-1.91c.27-.2,25.11-18.6,31.74-23.56l.19-.14h12.13L110.55,29c-.31.23-31.41,23.18-46.87,34.91-1.36,1-2.6,2-3.68,2.87-1.69,1.35-3.15,2.51-4.54,3.43-4.23,2.82-7.26,4-10.8,4.26Z" transform="translate(-14.97 -26.97)"/></g></svg>