<?xml version="1.0" encoding="utf-8"?>
<!-- Generator: Adobe Illustrator 22.0.1, SVG Export Plug-In . SVG Version: 6.00 Build 0)  -->
<svg version="1.0" id="katman_1" xmlns="http://www.w3.org/2000/svg" xmlns:xlink="http://www.w3.org/1999/xlink" x="0px" y="0px"
	 viewBox="0 0 900 675" style="enable-background:new 0 0 900 675;" xml:space="preserve">
<style type="text/css">
	.st0{clip-path:url(#SVGID_2_);fill:#12100B;}
</style>
<g>
	<g>
		<defs>
			<rect id="SVGID_1_" x="79.8" y="288.5" width="734.2" height="99"/>
		</defs>
		<clipPath id="SVGID_2_">
			<use xlink:href="#SVGID_1_"  style="overflow:visible;"/>
		</clipPath>
		<path class="st0" d="M212.1,387.4v-99H79.8v99H212.1L212.1,387.4z M157.7,296.2c0,0-13.5,1.7-22,15.8
			c-8.5,14.1-10.1,24.2-19.2,39.2c-9,15-18,16.9-28.7,16.9v-71.9H157.7L157.7,296.2z M204,379.9h-69.9c0,0,13.7-3,22.7-18
			c9-15,10.5-25.3,19.2-39.2c10.7-17.3,28-14.6,28-14.6V379.9L204,379.9z"/>
		<path class="st0" d="M794.3,308.7h-28.2v58.7h14.6v-24.3l6.1-0.1l11.6,24.3H814l-14-25.8C818.7,333.4,812.3,308.7,794.3,308.7
			L794.3,308.7z M792.4,334c-5.6,1.6-11.7,0.2-11.7,0.2v-16.5h10.4C799.4,317.7,802.2,331.3,792.4,334L792.4,334z M710.9,367.4h40
			v-9.8h-25.5v-15.7h18.8v-9.1h-18.8v-14.9h25.5v-9.1h-40V367.4L710.9,367.4z M673.1,322.5c-1.5-1.9-1.1-4.4,1.3-4.4h22.9v-9.4
			h-26.8c-13.1,0-15.2,13.5-10.3,19.2l22.2,23.3c3.6,3.4,0.6,6.7-2,6.7h-23.5v9.5h30.1c5.9,0,17.8-13.6,7.1-23.5L673.1,322.5
			L673.1,322.5z M629.6,367.4h14.6v-58.7h-14.6V367.4L629.6,367.4z M573.8,367.4h40v-9.8h-25.5v-15.7h18.8v-9.1h-18.8v-14.9h25.5
			v-9.1h-40V367.4L573.8,367.4z M539.8,367.4h15.1v-58.7h-15.1v23.8h-19.5v-23.8h-14.7v58.7h14.7v-25.2h19.5V367.4L539.8,367.4z
			 M471.5,367.4h14.6v-58.7h-11.5l0.2,37.9l-23.5-37.9H438v58.7h11.1v-36.9L471.5,367.4L471.5,367.4z M403.7,367.4h14.6v-58.7h-11.5
			l0.2,37.9l-23.5-37.9h-13.3v58.7h11.1v-36.9L403.7,367.4L403.7,367.4z M314.6,367.4h40v-9.8h-25.5v-15.7h18.8v-9.1h-18.8v-14.9
			h25.5v-9.1h-40V367.4L314.6,367.4z M277.5,322.5c-1.5-1.9-1.1-4.4,1.3-4.4h22.9v-9.4h-26.8c-13.1,0-15.2,13.5-10.3,19.2l22.2,23.3
			c3.6,3.4,0.6,6.7-2,6.7h-23.5v9.5h30.1c5.9,0,17.8-13.6,7.1-23.5L277.5,322.5L277.5,322.5z"/>
	</g>
</g>
</svg>
