<svg xmlns="http://www.w3.org/2000/svg" width="498" height="104" viewBox="0 0 498 104">
    <g fill="#000000">
        <path
            d="M14.959 86.806c4.992 0 8.924 2.731 8.924 8.4 0 4.733-3.744 8.359-8.994 8.359-4.968 0-8.971-2.4-8.971-8.335 0-4.629 3.579-8.424 9.041-8.424zm-.07 1.342c-3.226 0-5.109 3.272-5.109 7.3 0 5.014 2.307 6.757 4.944 6.757 2.825 0 5.3-2.332 5.3-7.488-.003-4.05-2.098-6.569-5.135-6.569zM45.111 87.112c.754.07 1.413.118 2.143.118s1.366-.048 2.1-.118a218.732 218.732 0 002.92 5.745c1.2-1.907 2.33-3.838 3.437-5.745a7.475 7.475 0 001.2.118 7.722 7.722 0 001.2-.118c-1.06 1.389-3.343 4.8-4.968 7.134a249.247 249.247 0 004.944 9.017c-.73-.047-1.389-.023-2.071-.023s-1.366-.024-2.049.023c-1.012-1.884-1.978-3.932-3.084-5.933-1.295 2-2.472 4-3.579 5.933-.353-.023-.753-.023-1.154-.023a10.506 10.506 0 00-1.2.023c1.224-1.507 3.413-4.968 5.038-7.392-1.58-2.92-4.241-7.629-4.877-8.759zM80.044 87.112c1.413.023 2.779.118 4.191.118 2.331 0 4.285-.048 4.921-.118a3.892 3.892 0 00-.094.989 4.519 4.519 0 00.094 1.06c-1.813-.119-4.615-.284-5.321-.284-.118 1.719-.118 3.414-.118 5.133 2.049-.023 3.555-.094 5.345-.188a5.478 5.478 0 00-.118 1.059 7.286 7.286 0 00.118.966 67.7 67.7 0 00-5.345-.212v1.2c0 2.614.071 4.5.189 6.428-.542-.047-1.154-.023-1.931-.023s-1.389-.024-1.931.023a99.35 99.35 0 00.188-6.428v-3.2c0-2.615-.07-4.474-.188-6.523zM119.616 86.806c4.991 0 8.923 2.731 8.923 8.4 0 4.733-3.743 8.359-8.994 8.359-4.967 0-8.97-2.4-8.97-8.335 0-4.629 3.579-8.424 9.041-8.424zm-.071 1.342c-3.225 0-5.109 3.272-5.109 7.3 0 5.014 2.308 6.757 4.944 6.757 2.826 0 5.3-2.332 5.3-7.488-.002-4.05-2.098-6.569-5.135-6.569zM154.571 95.871v.964c0 2.614.07 4.5.189 6.428-.542-.047-1.154-.023-1.931-.023s-1.389-.024-1.931.023a99.35 99.35 0 00.188-6.428v-3.2c0-2.613-.07-4.472-.188-6.521a14.714 14.714 0 001.931.118c.848 0 1.86-.118 3.461-.118 2.4 0 3.249.235 4.073.8a3.638 3.638 0 011.53 3.108c0 2.284-1.294 3.744-3.649 4.332 1.507 2.661 3.3 5.321 5.015 7.911-.73-.047-1.389-.023-2.119-.023s-1.413-.024-2.143.023l-4.214-7.392zm.07-7.417c-.046 2.142-.07 4.261-.07 6.4a4.347 4.347 0 00.518.047c2.072 0 3.2-1.107 3.2-3.367.002-2.75-1.081-3.08-3.648-3.08zM184.913 87.112a14.691 14.691 0 001.931.118c1.035 0 2.189-.118 4.261-.118 5.368 0 9.064 1.718 9.064 7.652 0 5.227-3.719 8.5-8.146 8.5-2.354 0-3.955-.023-5.179-.023-.778 0-1.39-.024-1.931.023a99.35 99.35 0 00.188-6.428v-3.2c-.004-2.616-.07-4.475-.188-6.524zm3.673 11.442v1.413c0 .918.023 1.766.023 1.978.471.023 1.107.07 2.072.07 3.555 0 5.769-2.4 5.769-7.3 0-3.861-2.143-6.262-5.392-6.262a21.915 21.915 0 00-2.449.118c0 .212-.023 1.059-.023 2v7.981zM233.608 92.952a3.429 3.429 0 11-3.429 3.429 3.452 3.452 0 013.429-3.429zM265.724 87.112c1.413.023 2.779.118 4.191.118 2.331 0 4.285-.048 4.921-.118a3.938 3.938 0 00-.094.989 4.573 4.573 0 00.094 1.06c-1.813-.119-4.614-.284-5.321-.284-.118 1.719-.118 3.414-.118 5.133a119.01 119.01 0 005.345-.188 5.4 5.4 0 00-.118 1.059 7.284 7.284 0 00.118.966 67.7 67.7 0 00-5.345-.212c0 1.012-.023 2-.023 3.014s.023 2 .07 2.942a46.486 46.486 0 005.392-.305 4.558 4.558 0 00-.094 1.059 2.588 2.588 0 00.094.918c-.848-.023-1.954-.023-4.12-.023h-2.331c-1.789 0-2.284 0-2.661.023.118-1.931.189-3.814.189-6.428v-3.2c0-2.615-.071-4.474-.189-6.523zM297.62 87.112a4.816 4.816 0 002.119 0c3.414 3.791 6.71 7.417 10.218 11.207v-4.332c0-3.061-.024-6.216-.164-6.875a4.816 4.816 0 002.119 0c-.307 5.745-.377 8.829-.377 13.349v2.8c-.307-.023-.636-.023-.966-.023-.352 0-.659 0-.918.023q-4.838-5.615-10.289-11.349c-.023.919-.047 1.814-.047 2.755v2.734c0 3.743.071 5.156.142 5.862a8.8 8.8 0 00-1.107-.023c-.353 0-.73 0-1.083.023.118-.471.471-6.71.471-11.466 0-2.166-.095-3.555-.118-4.685zM344.278 88.265c-2.92 0-5.933 2.426-5.933 7.37 0 3.767 2.1 6.569 5.721 6.569a6.864 6.864 0 002.567-.424 10.745 10.745 0 00.07-1.648c0-2.543-.142-3.6-.165-4.05a8.148 8.148 0 001.742.118 8.985 8.985 0 001.907-.118 30.316 30.316 0 00-.188 3.955v.778a11.656 11.656 0 00.071 1.812 23.235 23.235 0 01-6.287.943c-5.392 0-9.3-2.944-9.3-7.794 0-5.956 4.192-8.97 9.747-8.97a10.962 10.962 0 015.675 1.412 22.588 22.588 0 00-.659 2.4h-.33a5.382 5.382 0 00-4.638-2.353zM373.23 87.112a15.859 15.859 0 003.862 0 105.227 105.227 0 00-.189 6.521v3.2c0 1.79.024 3.533.047 4.756a46.487 46.487 0 005.392-.305 4.5 4.5 0 00-.094 1.059 2.563 2.563 0 00.094.918c-.848-.023-1.954-.023-4.12-.023h-2.331c-1.79 0-2.284 0-2.661.023.118-1.931.189-3.814.189-6.428v-3.2c0-2.613-.071-4.472-.189-6.521zM415.18 103.24c-.66 0-1.342-.024-2 .023-.5-1.507-1.037-3.131-1.625-4.732-1.013-.024-2-.047-3.014-.047-.824 0-1.625.023-2.448.047-.636 1.6-1.155 3.225-1.6 4.732a8.689 8.689 0 00-1.106-.023 10.112 10.112 0 00-1.177.023c1.153-2.472 4.638-10.9 6.71-16.268a3.478 3.478 0 001.789 0c2 5.343 4.709 12.619 6.545 16.268-.757-.047-1.415-.023-2.074-.023zm-8.477-6.1h4.309c-.683-1.907-1.342-3.721-2.1-5.6a92.01 92.01 0 00-2.209 5.602zM439.397 87.112a4.816 4.816 0 002.119 0c3.415 3.791 6.71 7.417 10.218 11.207v-4.332c0-3.061-.023-6.216-.164-6.875a4.816 4.816 0 002.119 0c-.306 5.745-.377 8.829-.377 13.349v2.8c-.306-.023-.635-.023-.965-.023-.353 0-.66 0-.918.023q-4.839-5.615-10.29-11.349c-.023.919-.046 1.814-.046 2.755v2.734c0 3.743.07 5.156.141 5.862a8.783 8.783 0 00-1.106-.023c-.354 0-.731 0-1.083.023.117-.471.47-6.71.47-11.466.002-2.166-.092-3.555-.118-4.685zM477.063 87.112a14.7 14.7 0 001.931.118c1.036 0 2.189-.118 4.262-.118 5.368 0 9.064 1.718 9.064 7.652 0 5.227-3.721 8.5-8.146 8.5-2.355 0-3.955-.023-5.18-.023-.777 0-1.39-.024-1.931.023.118-1.931.189-3.814.189-6.428v-3.2c0-2.616-.071-4.475-.189-6.524zm3.673 11.442v1.413c0 .918.024 1.766.024 1.978.47.023 1.106.07 2.072.07 3.555 0 5.767-2.4 5.767-7.3 0-3.861-2.141-6.262-5.391-6.262a21.881 21.881 0 00-2.448.118c0 .212-.024 1.059-.024 2v7.981zM15.712 8.065c-4.241 0-7.23 2.919-7.23 6.256 0 10.289 21.134 7.717 21.134 23.5 0 9.385-7.37 15.433-18.423 15.433-5.006 0-9.177-1.112-11.193-2.711a72.686 72.686 0 002.016-8.829h1.321c.765 4.1 4.033 7.508 9.594 7.508s8.133-3.2 8.133-7.091c0-10.567-20.716-7.647-20.716-23.5 0-9.663 7.369-14.877 15.642-14.877 5.005 0 8.69 1.252 11.4 3.407-.834 2.155-1.321 3.823-2.225 6.882h-1.042c-1.46-3.963-4.31-5.978-8.411-5.978zM51.517 18.076c10.845 0 17.032 6.534 17.032 17.031 0 11.471-7.021 18.145-17.032 18.145-8.272 0-17.032-4.1-17.032-16.615 0-12.444 8.273-18.561 17.032-18.561zm.139 3.128c-4.241 0-6.882 4.866-6.882 15.5 0 7.787 1.668 13.7 6.813 13.7 4.449 0 6.674-5.423 6.674-16.337 0-8.136-1.877-12.866-6.605-12.866zM75.297.001a34.044 34.044 0 005.214.348 34.044 34.044 0 005.214-.348c-.348 7.787-.556 14.947-.556 24.054v4.519c0 9.107.208 16.337.556 23.775-1.182-.139-3.2-.069-5.214-.069s-4.032-.07-5.214.069c.348-7.438.556-14.668.556-23.775v-4.52c-.001-9.107-.209-16.267-.556-24.053zM99.838.348a5.492 5.492 0 11-5.491 5.492A5.459 5.459 0 0199.838.348zm-5.214 18.631a39.234 39.234 0 0010.428 0c-.486 5.005-.556 9.8-.556 15.433v2.781a146.045 146.045 0 00.556 15.155c-1.182-.139-3.058-.069-5.214-.069s-3.893-.07-5.214.069a145.752 145.752 0 00.557-15.155v-2.781c0-5.631-.07-10.428-.557-15.433zM144.472 52.348c-1.183-.139-3.2-.069-5.214-.069a46.051 46.051 0 00-4.659.069c.14-.208.557-4.866.557-5.422l-.139-.139c-1.738 4.171-4.588 6.465-9.941 6.465-9.386 0-13.279-7.716-13.279-17.8 0-9.941 5.909-17.379 13.418-17.379a10.357 10.357 0 019.246 5.144h.138c0-8.343-.208-15.364-.556-23.22a34.058 34.058 0 005.215.348 34.064 34.064 0 005.214-.348c-.348 7.787-.557 14.947-.557 24.054v4.519c0 9.11.209 16.34.557 23.778zm-16.407-3.128c3.824 0 6.534-3.963 6.534-13.974 0-8.62-2.572-12.374-6.187-12.374-2.919 0-6.326 2.99-6.326 13.626 0 9.455 2.85 12.722 5.979 12.722zM185.771 8.065c-4.241 0-7.23 2.919-7.23 6.256 0 10.289 21.134 7.717 21.134 23.5 0 9.385-7.369 15.433-18.423 15.433-5.006 0-9.176-1.112-11.193-2.711a72.882 72.882 0 002.017-8.829h1.32c.765 4.1 4.033 7.508 9.594 7.508s8.134-3.2 8.134-7.091c0-10.567-20.717-7.647-20.717-23.5 0-9.663 7.369-14.877 15.642-14.877 5.005 0 8.69 1.252 11.4 3.407-.834 2.155-1.321 3.823-2.225 6.882h-1.042c-1.459-3.963-4.31-5.978-8.411-5.978zM224.01 21.201a6.962 6.962 0 00.209 1.738l-6.122-.138c-.347 4.24-.486 11.748-.486 15.5 0 9.663.765 11.261 3.893 11.261a5.308 5.308 0 003.2-.695v2.851a21.876 21.876 0 01-7.578 1.529c-5.909 0-8.828-3.476-8.828-10.5 0-5.423.486-13.974.486-19.883l-4.866.07a7.009 7.009 0 00.208-1.738 9.656 9.656 0 00-.208-1.877l4.866.208c0-2.85-.069-5-.278-8.551 3.267-1.321 6.4-2.711 9.524-4.31l.7.487c-.347 2.989-.626 8.2-.626 12.305l6.119-.139a9.587 9.587 0 00-.213 1.882zM242.433 18.076c7.439 0 12.723 3.2 12.723 11.331 0 5.909-.209 10.776-.209 15.781 0 4.379 1.252 4.8 4.1 4.8v1.668c-2.711 1.043-4.241 1.6-6.4 1.6-3.406 0-5.492-1.669-6.6-4.8a10.314 10.314 0 01-9.037 4.8c-7.022 0-9.942-4.171-9.942-8.829 0-6.117 4.032-8.69 10.289-10.15 7.786-1.877 8.482-2.5 8.482-4.936 0-3.337-2.5-6.048-6.674-6.048-3.059 0-7.091 1.877-8.343 3.824h-.486l-.9-4.171a21.115 21.115 0 0112.997-4.87zm3.546 16.475c-3.963 2.295-9.176 1.877-9.176 8.9 0 3.406 1.529 5.283 3.963 5.283 3.058 0 5.144-2.363 5.144-6.882 0-3.964.069-5.702.069-7.301zM281.924 21.201a7.01 7.01 0 00.208 1.738l-6.117-.139c-.348 4.24-.488 11.748-.488 15.5 0 9.663.765 11.261 3.894 11.261a5.31 5.31 0 003.2-.695v2.851a21.886 21.886 0 01-7.578 1.529c-5.909 0-8.829-3.476-8.829-10.5 0-5.423.487-13.974.487-19.883l-4.866.07a7.01 7.01 0 00.208-1.738 9.658 9.658 0 00-.208-1.877l4.866.208c0-2.85-.07-5-.278-8.551 3.267-1.321 6.4-2.711 9.524-4.31l.695.487c-.348 2.989-.625 8.2-.625 12.305l6.117-.139a9.658 9.658 0 00-.21 1.883zM305.214 49.011a12.986 12.986 0 008.551-3.128l.834.626-1.53 3.893c-2.294 1.738-5.283 2.85-10.566 2.85-9.108 0-16.894-4.936-16.894-17.31 0-11.958 6.883-17.866 16.129-17.866 9.176 0 14.182 5.63 14.182 15.433v1.46a2.386 2.386 0 01-.07.834h-19.953c0 7.508 2.921 13.208 9.317 13.208zm-3.754-27.81c-4.1 0-5.354 6.117-5.562 11.47h10.706c-.207-6.948-1.529-11.47-5.144-11.47zM343.038 4.658a43.032 43.032 0 005.7.348 43 43 0 005.7-.348 311.95 311.95 0 00-.556 19.257v9.455c0 5.283.07 10.427.139 14.042a136.793 136.793 0 0015.92-.9 13.334 13.334 0 00-.278 3.128 7.575 7.575 0 00.278 2.711c-2.5-.069-5.77-.069-12.166-.069h-6.878c-5.283 0-6.743 0-7.855.069.348-5.7.557-11.262.557-18.978v-9.458a312.356 312.356 0 00-.561-19.257zM391.497 18.076c10.845 0 17.032 6.534 17.032 17.031 0 11.471-7.021 18.145-17.032 18.145-8.272 0-17.032-4.1-17.032-16.615-.001-12.444 8.272-18.561 17.032-18.561zm.14 3.128c-4.242 0-6.883 4.866-6.883 15.5 0 7.787 1.668 13.7 6.812 13.7 4.45 0 6.674-5.423 6.674-16.337-.001-8.136-1.878-12.866-6.604-12.866zM438.146 21.621a9.024 9.024 0 013.754 7.716c0 6.883-5.423 11.54-13.487 11.54-1.042 0-1.946-.069-3.128-.069a2.341 2.341 0 00-2.016 2.5c0 2.225 1.668 3.615 5.353 3.685l5.144.069c7.787.139 11.332 2.781 11.332 8.9 0 11.054-10.15 14.877-18.353 14.877-8.689 0-13.834-3.684-13.834-9.246 0-4.449 2.642-7.021 6.813-8.62v-.139a5.128 5.128 0 01-3.963-5.075c0-3.059 2.572-6.326 6.465-7.369v-.139a11.934 11.934 0 01-6.535-3.754 10.664 10.664 0 01-2.363-7.23c0-7.022 6.048-11.192 14.737-11.192 1.669 0 3.477.208 5.145.277 1.182.07 2.433.14 3.893.14 2.294 0 4.867-.07 7.37-.07a13.4 13.4 0 00-.14 1.668 13.416 13.416 0 00.14 1.669l-6.119-.278zm-11.192 31.631c-2.434 0-4.1.208-5.006.695-1.112.556-2.711 2.781-2.711 6.049 0 5.283 4.171 7.994 9.107 7.994 5.353 0 8.69-3.824 8.69-8.273 0-5.422-3.754-6.465-10.08-6.465zm-3.894-23.151c0 6.118 2.434 8.2 4.588 8.2 3.06 0 4.52-2.434 4.52-8.83 0-6.326-1.878-8.55-4.38-8.55-3.129.005-4.728 3.063-4.728 9.18zM455.252.348a5.492 5.492 0 11-5.492 5.492 5.46 5.46 0 015.492-5.492zm-5.214 18.631a39.234 39.234 0 0010.428 0c-.487 5.005-.556 9.8-.556 15.433v2.781a145.77 145.77 0 00.556 15.155c-1.182-.139-3.059-.069-5.214-.069s-3.893-.07-5.214.069a146.031 146.031 0 00.557-15.155v-2.781c.002-5.631-.071-10.428-.557-15.433zM486.884 21.621c-5.562 0-8.342 5.353-8.342 14.321 0 8.411 3.615 13.069 10.358 13.069a9.958 9.958 0 007.16-3.267l.834.695a41.329 41.329 0 00-1.529 4.1c-2.016 1.6-5.144 2.711-9.385 2.711-13.626 0-18.075-8.69-18.075-17.38 0-10.219 7.16-17.8 18.354-17.8a21.728 21.728 0 0111.957 3.267 25.455 25.455 0 00-2.642 7.23h-1.669c-.764-4.166-2.78-6.946-7.021-6.946z" />
    </g>
</svg>