<?xml version="1.0" encoding="utf-8"?>
<!-- Generator: Adobe Illustrator 24.3.0, SVG Export Plug-In . SVG Version: 6.00 Build 0)  -->
<svg version="1.1" id="Layer_1" xmlns="http://www.w3.org/2000/svg"
	xmlns:xlink="http://www.w3.org/1999/xlink" x="0px" y="0px"
	height="100px" viewBox="0 0 427.8 340.6" style="enable-background:new 0 0 427.8 340.6;"
	xml:space="preserve">
<style type="text/css">
	.st0{fill:#000000;}
</style>
<g id="Logos">
	<g>
		<g>
			<g>
				<path class="st0" d="M53.8,256.9h3.7v23.2c0,7.1,0.5,10.4,5.4,10.4s5.4-3.4,5.4-10.4v-23.2H72v23.5c0,4.8-0.1,8.1-1.9,10.3
					c-1.5,1.9-4.1,3.1-7.2,3.1c-3.2,0-5.7-1.2-7.2-3.1c-1.8-2.3-1.9-5.6-1.9-10.3C53.8,280.4,53.8,256.9,53.8,256.9z"/>
				<path class="st0" d="M83.8,259.7v33.4h-3.3v-36.2h5.4l7.5,20.5c1.1,3,2.1,6,3,9c-0.3-3.1-0.3-5.8-0.3-7.9v-21.6h3.3v36.2h-3.7
					l-9.1-25C85.4,265.1,84.5,262.3,83.8,259.7"/>
				<rect x="108" y="256.9" class="st0" width="3.7" height="36.2"/>
				<path class="st0" d="M117.3,256.9h3.7l5.4,24.7c0.3,1.3,0.6,3.2,0.9,5.7c0.3-1.8,0.6-3.7,1.1-5.8l5.4-24.5h3.6l-8.3,36.2h-3.5
					L117.3,256.9z"/>
				<polygon class="st0" points="143.9,256.9 160.2,256.9 160.2,260.3 147.6,260.3 147.6,272.8 156.8,272.8 156.8,276.1 
					147.6,276.1 147.6,289.8 160.6,289.8 160.6,293.2 143.9,293.2 				"/>
				<path class="st0" d="M167.8,256.9h6.6c7.8,0,11.7,3.1,11.7,9.5c0,4.4-2,7.5-5.7,8.7l5.9,18h-4l-5.5-17.2
					c-1.3,0.1-2.6,0.1-3.9,0.1h-1.5v17.1h-3.7L167.8,256.9L167.8,256.9z M174.6,272.8c5,0,7.5-2.1,7.5-6.3c0-4.3-2.5-6.3-7.5-6.3
					h-3.2v12.6L174.6,272.8L174.6,272.8z"/>
				<path class="st0" d="M194.3,283.5c0.3,4.7,2.1,7,5.8,7c3.2,0,5.3-2.4,5.3-6c0-3.9-2.6-6.2-7-9.5c-4.5-3.3-7-5.7-7-10.6
					c0-4.6,3.4-8.2,8-8.2c5.4,0,8.7,3.6,8.9,9.8h-3.5c-0.3-4.5-2.1-6.7-5.3-6.7c-3,0-4.9,2-4.9,5.1c0,1.6,0.7,3.1,1.8,4.3
					c1.9,2,4.4,3.6,6.8,5.5c3.9,3.1,5.7,6,5.7,10.2c0,5.8-3.6,9.5-8.9,9.5c-5.7,0-9.1-3.7-9.2-10.3L194.3,283.5L194.3,283.5z"/>
				<path class="st0" d="M222.3,256.9h5.1l7.9,36.2h-3.9l-2.1-10.7h-9.1l-2.1,10.7h-3.7L222.3,256.9z M228.5,279.1l-3.8-18.9
					l-3.8,18.9H228.5z"/>
				<polygon class="st0" points="242.3,256.9 246,256.9 246,289.7 257.4,289.7 257.4,293.2 242.3,293.2 				"/>
				<path class="st0" d="M277.1,256.9h5.1l7.9,36.2h-3.9l-2.1-10.7H275l-2.1,10.7h-3.7L277.1,256.9z M283.3,279.1l-3.8-18.9
					l-3.8,18.9H283.3z"/>
				<path class="st0" d="M295.8,256.9h3.7v23.2c0,7.1,0.5,10.4,5.4,10.4s5.4-3.4,5.4-10.4v-23.2h3.7v23.5c0,4.8-0.2,8.1-1.9,10.3
					c-1.5,1.9-4.1,3.1-7.2,3.1c-3.2,0-5.7-1.2-7.2-3.1c-1.8-2.3-1.9-5.6-1.9-10.3V256.9z"/>
				<path class="st0" d="M321.6,256.9h6.7c8.6,0,12,5.6,12,18c0,12.5-3.4,18.2-12,18.2h-6.7V256.9z M325.3,289.7
					c0.7,0.1,1.4,0.1,2,0.1c7.2,0,9.3-4.3,9.3-15c0-10.6-2.1-14.8-9.2-14.8c-0.7,0-1.4,0.1-2.1,0.1L325.3,289.7L325.3,289.7z"/>
				<rect x="347.8" y="256.9" class="st0" width="3.7" height="36.2"/>
				<path class="st0" d="M358,275c0-12.5,3.5-18.8,10-18.8s10,6.3,10,18.8s-3.5,18.8-10,18.8C361.4,293.9,358,287.5,358,275
					 M361.9,274.2c0,11,1.6,16.3,6.1,16.3c4.4,0,6.1-5.1,6.1-15.4c0-10.4-1.8-15.4-6.1-15.4C363.7,259.6,361.9,264.4,361.9,274.2"/>
			</g>
		</g>
		<g>
			<g id="UA_Logo_1_">
				<g>
					<path id="UA_1_" class="st0" d="M251.3,182.7v-1.5v-24.5l74.8-3.6l-0.4-5.2h-74.3v-45.5c0-12.6-10.2-22.9-22.9-22.9
						c-12.6,0-22.9,10.2-22.9,22.9v22.2v0.2V148h-4.4l-8.4,11.6l12.8-0.6v20.6c0,7.3-5.9,13.2-13.3,13.3c-7.3,0-13.2-5.9-13.3-13.3
						l0.1-65.3v-1c0,0,0.3-8.8-4.8-13.3c-6.8-5.9-20.8-2.5-20.8-2.5c17.4,0.1,15.9,15,15.9,15v1.8v65.3c0,12.6,10.2,22.9,22.9,22.9
						c12.6,0,22.9-10.2,22.9-22.9v-21.1l26.6-1.3v24.1v0.7c0,0-0.5,8.8,4.6,13.3c6.8,5.9,20.8,2.5,20.8,2.5
						C250.6,197.9,251.3,182.7,251.3,182.7 M215.2,147.9v-22.6v-0.2v-22.7c0-7.3,5.9-13.2,13.3-13.3c7.3,0,13.2,5.9,13.3,13.3
						l0.1,45.5H215.2z"/>
				</g>
			</g>
			<path class="st0" d="M66.8,144.3L216,57.8l149.2,86.5l0,0L216,230.8L66.8,144.3z M384.3,144.3L216,46.7L47.7,144.3L216,241.9
				L384.3,144.3"/>
		</g>
	</g>
</g>
</svg>