<?xml version="1.0" ?><svg viewBox="0 0 32 32" xmlns="http://www.w3.org/2000/svg"><defs><style>.cls-1{fill:#f2d8c2;}.cls-2{fill:#568c78;}</style></defs><title/><g data-name="Layer 10" id="Layer_10"><path class="cls-1" d="M16,2A7,7,0,0,0,9,9V19a7,7,0,0,0,14,0V9A7,7,0,0,0,16,2Z"/><path class="cls-2" d="M22,9.88H18.16a1,1,0,0,1,0-2H22a1,1,0,0,1,0,2Z"/><path class="cls-2" d="M22,20H18.16a1,1,0,0,1,0-2H22a1,1,0,0,1,0,2Z"/><path class="cls-2" d="M22,15H18.16a1,1,0,1,1,0-2H22a1,1,0,0,1,0,2Z"/><path class="cls-2" d="M16,30.09a10,10,0,0,1-10-10,1,1,0,0,1,2,0,8,8,0,1,0,16,0,1,1,0,0,1,2,0A10,10,0,0,1,16,30.09Z"/></g></svg>