<?xml version="1.0" ?><svg viewBox="0 0 32 32" xmlns="http://www.w3.org/2000/svg"><defs><style>.cls-1{fill:#568c78;}.cls-2{fill:#f2d8c2;}</style></defs><title/><g data-name="Layer 13" id="Layer_13"><path class="cls-1" d="M5.23,20.21a1,1,0,0,1-1-.78c-1.49-6.62.35-10.71,2.16-13a12,12,0,0,1,9.49-4.35,12.17,12.17,0,0,1,9.68,4.31c1.75,2.19,3.52,6.21,2,12.91a1,1,0,0,1-1.95-.45c1.06-4.69.51-8.56-1.61-11.21a10.21,10.21,0,0,0-8.12-3.56A9.88,9.88,0,0,0,8,7.71C5.78,10.46,5.17,14.36,6.21,19a1,1,0,0,1-.76,1.19A.78.78,0,0,1,5.23,20.21Z"/><path class="cls-1" d="M13.53,28.28a1,1,0,0,1-1-.75L10.07,18A1,1,0,0,1,12,17.45L14.5,27a1,1,0,0,1-1,1.25Z"/><path class="cls-2" d="M9.32,17.92a1,1,0,0,0-1-.75,6.49,6.49,0,0,0-6.4,6.35,6.54,6.54,0,0,0,6.68,6.37,6.85,6.85,0,0,0,2.86-.64A1,1,0,0,0,12,28.09Z"/><path class="cls-2" d="M23.69,17.17h0a1,1,0,0,0-1,.75L20,28.09a1,1,0,0,0,.55,1.16,6.85,6.85,0,0,0,2.86.64,6.54,6.54,0,0,0,6.68-6.37A6.49,6.49,0,0,0,23.69,17.17Z"/><path class="cls-1" d="M18.47,28.28a1,1,0,0,1-1-1.25L20,17.45a1,1,0,0,1,1.93.51l-2.49,9.57A1,1,0,0,1,18.47,28.28Z"/></g></svg>