<?xml version="1.0" ?><svg viewBox="0 0 32 32" xmlns="http://www.w3.org/2000/svg"><defs><style>.cls-1{fill:#568c78;}.cls-2{fill:#f2d8c2;}</style></defs><title/><g data-name="Layer 7" id="Layer_7"><path class="cls-1" d="M10,13a1,1,0,0,1-.11-2L28.89,9a1,1,0,0,1,.22,2L10.11,13Z"/><path class="cls-2" d="M10,26a1,1,0,0,1-1-1V7a1,1,0,0,1,.9-1l19-2A1,1,0,0,1,30,5V23a1,1,0,0,1-2,0V6.11L11,7.9V25A1,1,0,0,1,10,26Z"/><circle class="cls-2" cx="7" cy="25" r="4"/><circle class="cls-2" cx="26" cy="23" r="4"/></g></svg>