<?xml version="1.0" encoding="utf-8"?>
<!-- Generator: Adobe Illustrator 25.0.1, SVG Export Plug-In . SVG Version: 6.00 Build 0)  -->
<svg version="1.1" id="Layer_1" xmlns="http://www.w3.org/2000/svg" xmlns:xlink="http://www.w3.org/1999/xlink" x="0px" y="0px"
	 viewBox="0 0 1000 1000" style="enable-background:new 0 0 1000 1000;" xml:space="preserve">
<style type="text/css">
	.st0{fill:#63CEB2;}
	.st1{opacity:0.25;fill:#9A9C9B;enable-background:new    ;}
	.st2{fill:#39294E;}
	.st3{fill:none;stroke:#39294E;stroke-width:2.8038;stroke-linecap:round;stroke-linejoin:round;}
	.st4{fill:#FFAB91;}
	.st5{fill:#E88B74;}
	.st6{fill:#C65258;}
	.st7{opacity:0.21;fill:#C65258;enable-background:new    ;}
	
		.st8{opacity:0.6;fill:none;stroke:#FFFFFF;stroke-width:2.8038;stroke-linecap:round;stroke-linejoin:round;enable-background:new    ;}
	.st9{fill:none;stroke:#39294E;stroke-width:2.8038;stroke-linejoin:round;}
	.st10{fill:#FFFFFF;}
	.st11{fill:#EFEFEF;}
	.st12{fill:#5F2E50;}
	.st13{opacity:0.22;}
	.st14{fill:#5A2849;}
	.st15{fill:#39294E;stroke:#39294E;stroke-width:2.8038;stroke-linejoin:round;}
	.st16{fill:none;stroke:#39294E;stroke-width:4.2058;stroke-linecap:round;stroke-linejoin:round;}
	.st17{opacity:0.22;fill:#C65258;enable-background:new    ;}
	.st18{fill:#814F5A;}
	.st19{opacity:0.13;fill:#814F5A;enable-background:new    ;}
	.st20{fill:#EE406D;}
	.st21{opacity:0.3;fill:#EE406D;enable-background:new    ;}
	.st22{fill:#FBAD62;}
	.st23{opacity:0.4;fill:#FBAD62;enable-background:new    ;}
	.st24{fill:#B55957;}
	.st25{opacity:0.3;fill:#B55957;enable-background:new    ;}
	.st26{fill:none;stroke:#39294E;stroke-width:2.8038;stroke-linecap:round;stroke-linejoin:round;stroke-miterlimit:4;}
	.st27{fill:#FFAB91;stroke:#39294E;stroke-width:2.8038;stroke-linecap:round;stroke-linejoin:round;}
	.st28{fill:#FFAB91;stroke:#39294E;stroke-width:2.8038;stroke-linejoin:round;}
</style>
<rect class="st0" width="1000" height="1000"/>
<ellipse class="st1" cx="500" cy="769.3" rx="206.8" ry="48.3"/>
<path class="st2" d="M418.7,736c0,0-15.4,6.5-22.3,14.1c-9.9,10.8-4.8,26.1,18.6,28.4c28.5,2.8,43-17.7,43.5-25.2
	c0.7-9.3,0.4-13.8-3.5-17.5C421.3,731.7,418.7,736,418.7,736z"/>
<path class="st3" d="M418.7,736c0,0-15.4,6.5-22.3,14.1c-9.9,10.8-4.8,26.1,18.6,28.4c28.5,2.8,43-17.7,43.5-25.2
	c0.7-9.3,0.4-13.8-3.5-17.5C421.3,731.7,418.7,736,418.7,736z"/>
<path class="st4" d="M424,686.2c0,0,3.7,37.9,0.5,46.8c-0.5,1.5-9.7,3.5-10.8,9.1c-0.9,4.9,2.5,10.4,9.9,12.9
	c11.8,3.8,25.1,0.2,29.8-9.8c4.3-9.2-4.5-30.2,7.7-59.6C427.2,685.5,424,686.2,424,686.2z"/>
<path class="st5" d="M421.5,745.7c1-5.6,10.3-7.6,10.8-9.1c3.1-8.8-0.5-46.8-0.5-46.8s2.6-0.6,28-0.7c0.4-1.2,0.9-2.4,1.4-3.6
	c-33.9,0-37.1,0.7-37.1,0.7s3.7,37.9,0.5,46.8c-0.5,1.5-9.7,3.5-10.8,9.1c-0.9,4.9,2.5,10.4,9.9,12.9c0.7,0.2,1.3,0.4,2,0.6
	C422.3,752.8,420.9,749.1,421.5,745.7z"/>
<path class="st3" d="M424,686.2c0,0,3.7,37.9,0.5,46.8c-0.5,1.5-9.7,3.5-10.8,9.1c-0.9,4.9,2.5,10.4,9.9,12.9
	c11.8,3.8,25.1,0.2,29.8-9.8c4.3-9.2-4.5-30.2,7.7-59.6C427.2,685.5,424,686.2,424,686.2z"/>
<path class="st6" d="M415.4,679.7c0,0,2,11.8,2,15.1s18.4,6.1,26.9,6.1s14.3,3.3,17.6,0s5.5-22.5,5.5-24.5S415.4,679.7,415.4,679.7z
	"/>
<path class="st7" d="M432,685.3c0,0,19.6-2,34.8-3.1c0.4-2.9,0.6-5.2,0.6-5.8c0-2-52,3.3-52,3.3s2,11.8,2,15.1
	c0,2.2,8.5,4.3,16.6,5.3C433.9,696.5,432,685.3,432,685.3z"/>
<path class="st3" d="M415.4,679.7c0,0,2,11.8,2,15.1s18.4,6.1,26.9,6.1s14.3,3.3,17.6,0s5.5-22.5,5.5-24.5S415.4,679.7,415.4,679.7z
	"/>
<path class="st8" d="M427.2,769.7c0.4-0.1,0.8-0.2,1.1-0.4"/>
<path class="st8" d="M410.2,768.3c0,0,3.7,3.8,12.8,2.4"/>
<path class="st2" d="M590.4,749.1c9.9,10.8,12.1,26.2-11.3,28.5c-28.5,2.8-45.2-14.6-45.7-22.2c-0.7-9.3-0.1-16.2,3.7-20
	C570.7,731.4,583.4,741.5,590.4,749.1z"/>
<path class="st3" d="M590.4,749.1c9.9,10.8,12.1,26.2-11.3,28.5c-28.5,2.8-45.2-14.6-45.7-22.2c-0.7-9.3-0.1-16.2,3.7-20
	C570.7,731.4,583.4,741.5,590.4,749.1z"/>
<path class="st4" d="M565.4,686.2c0,0-3.7,37.9-0.5,46.8c0.5,1.5,13.4,11.6,3.3,19.5c-4,3.1-24.7,2.7-29.4-7.3
	c-4.3-9.2,1.7-30.2-10.4-59.6C562.3,685.5,565.4,686.2,565.4,686.2z"/>
<path class="st5" d="M546.5,745.8c-4.3-9.2,1.7-30.2-10.4-59.6c15,0,23.9,0.1,29.3,0.3c0-0.1,0-0.2,0-0.2s-3.1-0.7-37.1-0.7
	c12.1,29.4,6.1,50.5,10.4,59.6c3.2,6.8,13.8,9.2,21.5,9C554.4,753.1,548.7,750.5,546.5,745.8z"/>
<path class="st3" d="M565.4,686.2c0,0-3.7,37.9-0.5,46.8c0.5,1.5,15.1,14.7,3.3,19.5c-7.4,3-24.7,2.7-29.4-7.3
	c-4.3-9.2,1.7-30.2-10.4-59.6C562.3,685.5,565.4,686.2,565.4,686.2z"/>
<path class="st6" d="M574.1,682.5c0,0-2,11.8-2,15.1s-15.6,6-24,8c-6.3,1.5-17.3,1.4-20.5-1.8s-5.5-22.5-5.5-24.5
	S574.1,682.5,574.1,682.5z"/>
<path class="st7" d="M538.5,703.7c-3.3-3.3-5.5-22.5-5.5-24.5c0-0.1,0.1-0.1,0.2-0.2c-6.5-0.4-11.1-0.4-11.1,0.2
	c0,2,2.2,21.2,5.5,24.5c2.7,2.7,10.9,3.2,17.2,2.4C542,705.7,539.7,704.9,538.5,703.7z"/>
<path class="st3" d="M574.1,682.5c0,0-2,11.8-2,15.1s-15.6,6-24,8c-6.3,1.5-17.3,1.4-20.5-1.8s-5.5-22.5-5.5-24.5
	S574.1,682.5,574.1,682.5z"/>
<path class="st8" d="M569.9,770.8c3.1,0.2,7.8,0.5,11.2-1.8"/>
<path class="st8" d="M563.7,769.7c0,0,0.2,0,1.5,0.3"/>
<path class="st4" d="M521.1,394.5h-34.7c0,0,2.8-15.9,3.1-20.9c0.5-7.9-0.5-29.2-0.5-29.2h29.5c0,0-1.1,21.4-0.5,29.2
	C518.3,378.6,521.1,394.5,521.1,394.5z"/>
<path class="st5" d="M489,344.3c0,0,0.2,4.6,0.4,10.4c9.2,4.1,19.8,3.7,28.7-1l0,0c0.2-5.3,0.4-9.4,0.4-9.4H489z"/>
<path class="st9" d="M521.1,394.5h-34.7c0,0,2.8-15.9,3.1-20.9c0.5-7.9-0.5-29.2-0.5-29.2h29.5c0,0-1.1,21.4-0.5,29.2
	C518.3,378.6,521.1,394.5,521.1,394.5z"/>
<path class="st10" d="M518.4,372.4c-1.7,6.7-6.6,13-15.1,13s-13.5-6.4-15.1-13l-22.9,1.4l4.3,148.2h66.7l4.3-148.2L518.4,372.4z"/>
<path class="st11" d="M488.2,378.6c1.5,2.2,6.6,6.8,15.1,6.8s13.2-2.4,15.1-6.8l22.1,1.4l0.2-6.2l-22.3-1.4c-1.7,6.7-6.6,13-15.1,13
	s-13.5-6.4-15.1-13l-22.9,1.4l0.2,6.2L488.2,378.6z"/>
<path class="st9" d="M518.4,372.4c-1.7,6.7-6.6,13-15.1,13s-13.5-6.4-15.1-13l-22.9,1.4l4.3,148.2h66.7l4.3-148.2L518.4,372.4z"/>
<path class="st12" d="M556.9,522c0,0,2.7,27.6,29.4,85.1c18.2,39.3,0.5,78.6-27,85.4c-22.9,5.7-44.2,1.7-50.8-24.7
	c-5.8-23.2,4.2-55.4,0.6-71.4c-6.6,1.5-9.6,1.5-14.4,0c-12.6,28.2-3,59.4-15.6,76.3c-11.9,16-43,23.2-66.2,8
	c-24-15.7-19.8-46.1,2-80.2c18.5-29,33.2-63.6,36-83C458,517.5,556.9,522,556.9,522z"/>
<g class="st13">
	<path class="st12" d="M430.2,676.6c-24-15.7-19.8-46.1,2-80.2c17.1-26.7,30.9-58.3,35.1-78.2c-8.7-0.4-14.9-0.6-16.5-0.6
		c-2.8,19.4-17.5,54-36,83c-21.8,34.1-26,64.6-2,80.2c15.9,10.4,35.5,10.3,50.1,4C451.5,685.7,439.9,682.8,430.2,676.6z"/>
	<path class="st12" d="M525.9,663.6c-8-21.9-1.9-64.3-10.5-70.4c-6.6,1.5-5.1,3.3-5.8,5.5c2.3,16.7-6.5,46.9-1,69
		c6.6,26.3,27.9,30.4,50.8,24.7c2.2-0.5,4.3-1.3,6.3-2.2C547.2,692.1,533.7,684.9,525.9,663.6z"/>
</g>
<path class="st14" d="M538.1,463.1c0,0,1.8,64.8-20.8,100.4c-18.9,29.8-57.2,35.3-68,35.6c-8.9,0.1-17.6-1.9-25.6-5.8l8.2-39.4
	L538.1,463.1z"/>
<path class="st3" d="M556.9,522c0,0,2.7,27.6,29.4,85.1c18.2,39.3,0.5,78.6-27,85.4c-22.9,5.7-44.2,1.7-50.8-24.7
	c-5.8-23.2,4.2-55.4,0.6-71.4c-4.8,1-9.7,1-14.4,0c-12.6,28.2-3,59.4-15.6,76.3c-11.9,16-43,23.2-66.2,8c-24-15.7-19.8-46.1,2-80.2
	c18.5-29,33.2-63.6,36-83C458,517.5,556.9,522,556.9,522z"/>
<path class="st15" d="M503.8,284.6c38.9,0,77.5-6.6,82.8-33.6c3.7-19.2-2.7-49.2-10-62l-5.2-9.2l-67.6-0.7l-67.6,4.2
	c0,0-29.8,29.9-14.1,63.9C433.5,272.1,464.9,284.6,503.8,284.6z"/>
<path class="st4" d="M432.8,276.7c-9.5,9.5-24.5-4.4-22.7-23.1c0.9-9.8,12.5-17.8,23.6-5.5C433.8,248.1,439.1,270.4,432.8,276.7z"/>
<path class="st5" d="M433.3,256.3c1.1,4.9,1.8,9.8,2.1,14.8c1.8-8.9-1.6-23-1.6-23c-11.1-12.3-22.7-4.3-23.6,5.5
	c-0.2,1.9-0.2,3.9,0,5.9C412.5,250.8,423.1,245,433.3,256.3z"/>
<path class="st9" d="M432.8,276.7c-9.5,9.5-24.5-4.4-22.7-23.1c0.9-9.8,12.5-17.8,23.6-5.5C433.8,248.1,439.1,270.4,432.8,276.7z"/>
<path class="st2" d="M426.4,262.5c-0.3-1-0.8-2-1.3-3c-0.5-0.9-1.2-1.8-1.9-2.6c-0.7-0.7-1.6-1.3-2.6-1.6c-1-0.2-2.1-0.2-3.1,0.1
	l-0.1,0c-0.3,0.1-0.6-0.1-0.7-0.4c-0.1-0.3,0.1-0.6,0.4-0.7c1.2-0.5,2.5-0.7,3.9-0.5c1.3,0.2,2.6,0.8,3.6,1.6c1,0.8,1.9,1.7,2.7,2.8
	c0.8,1,1.4,2.1,1.9,3.3c0.3,0.7,0,1.5-0.7,1.8c-0.7,0.3-1.5,0-1.8-0.7C426.5,262.7,426.4,262.6,426.4,262.5L426.4,262.5z"/>
<path class="st4" d="M574.7,276.7c9.5,9.5,24.5-4.4,22.7-23.1c-0.9-9.8-12.5-17.8-23.6-5.5C573.8,248.1,568.4,270.4,574.7,276.7z"/>
<path class="st5" d="M573.8,254c11.1-12.3,22.7-4.3,23.6,5.5c0,0,0,0,0,0.1c0.2-2,0.2-4,0-6c-0.9-9.8-12.5-17.8-23.6-5.5
	c0,0-2.6,11-2,19.8C572.1,263.2,572.8,258.5,573.8,254z"/>
<path class="st9" d="M574.7,276.7c9.5,9.5,24.5-4.4,22.7-23.1c-0.9-9.8-12.5-17.8-23.6-5.5C573.8,248.1,568.4,270.4,574.7,276.7z"/>
<path class="st2" d="M578.5,261.6c0.5-1.1,1.1-2.1,1.8-3.1c0.7-1,1.5-1.8,2.4-2.5c1-0.7,2-1.3,3.2-1.6c1.1-0.3,2.3-0.3,3.5,0
	c0.3,0,0.4,0.3,0.4,0.6c0,0.2-0.2,0.4-0.5,0.4h-0.1c-1-0.1-2,0.1-2.9,0.4c-0.9,0.4-1.7,0.9-2.4,1.6c-0.7,0.7-1.3,1.5-1.7,2.4
	c-0.5,0.9-0.8,1.8-1.1,2.7l0,0c-0.2,0.7-1,1.2-1.7,1c-0.7-0.2-1.2-1-1-1.7l0,0C578.4,261.7,578.5,261.7,578.5,261.6z"/>
<path class="st4" d="M576.5,241.4c-3.9-15-9.4-29.6-16.5-43.5l-56.3-0.7l-56.3,0.7c-7.1,13.8-12.6,28.4-16.5,43.5
	c-6.7,25.8-3.8,65.8,20.5,89c15.9,15.1,42.4,19.1,52.2,19.1c9.9,0,36.4-3.9,52.2-19.1C580.3,307.2,583.3,267.2,576.5,241.4z"/>
<path class="st5" d="M556,325.3c-15.9,15.1-42.4,19.1-52.2,19.1s-36.4-3.9-52.2-19.1c-16.5-15.7-23.1-39.1-23.6-60.6
	c-0.5,22.8,5.8,48.8,23.6,65.8c15.9,15.1,42.4,19.1,52.2,19.1s36.4-3.9,52.2-19.1c17.8-17,24.2-43,23.6-65.8
	C579.1,286.1,572.5,309.6,556,325.3z"/>
<path class="st5" d="M431.7,238.8l15.8-40.9l-1.5-2.8l16.4,3.3c0,0,25.7-6.3,26.6-6.3h26.6c2.4,0,38.4,3,39.1,3.7
	s14.8,22.6,14.8,22.6s4.6,10.3,5.9,18.6c-47.7,11.5-86.8-26-86.8-26s-23.8-1-37.7-4.4C446.5,213.4,431.7,238.8,431.7,238.8"/>
<path class="st9" d="M576.5,241.4c-3.9-15-9.4-29.6-16.5-43.5l-56.3-0.7l-56.3,0.7c-7.1,13.8-12.6,28.4-16.5,43.5
	c-6.7,25.8-3.8,65.8,20.5,89c15.9,15.1,42.4,19.1,52.2,19.1c9.9,0,36.4-3.9,52.2-19.1C580.3,307.2,583.3,267.2,576.5,241.4z"/>
<path class="st2" d="M512.8,272.1c-0.5-0.5-1-0.8-1.7-1c-0.7-0.3-1.4-0.4-2.1-0.6c-2.8-0.6-5.8-0.6-8.6,0c-0.7,0.1-1.4,0.3-2.1,0.6
	c-0.6,0.2-1.2,0.6-1.7,1l-0.1,0.1c-0.1,0.2-0.4,0.2-0.5,0c-0.1-0.1-0.2-0.3-0.1-0.4c0.3-0.8,0.9-1.5,1.7-2c0.7-0.4,1.4-0.8,2.2-1.1
	c3.1-1,6.5-1,9.6,0c0.8,0.3,1.5,0.6,2.2,1.1c0.8,0.4,1.4,1.1,1.7,2c0.1,0.2,0,0.4-0.2,0.5C513.2,272.3,513,272.2,512.8,272.1
	L512.8,272.1z"/>
<path class="st2" d="M474.2,284.1c1.9,1.8,4.1,3.4,6.5,4.6c2.4,1.2,4.9,2.2,7.5,2.9c10.4,2.9,21.4,2.9,31.8,0
	c2.6-0.7,5.1-1.7,7.4-2.9c2.4-1.2,4.6-2.7,6.5-4.6l0,0c0.3-0.3,0.8-0.3,1.1,0c0.3,0.3,0.3,0.7,0,1c-1.9,2.1-4.1,4-6.6,5.4
	c-2.5,1.4-5.1,2.6-7.8,3.5c-10.8,3.4-22.5,3.4-33.3,0c-2.7-0.9-5.3-2-7.7-3.5c-2.5-1.4-4.7-3.3-6.6-5.4c-0.3-0.3-0.2-0.8,0.1-1
	C473.5,283.9,473.9,283.9,474.2,284.1L474.2,284.1z"/>
<circle class="st2" cx="476.4" cy="238.8" r="7"/>
<path class="st2" d="M459.7,231.4c0.8-2.1,2.1-4,3.7-5.5c1.6-1.6,3.5-2.8,5.6-3.7c2-0.9,4.2-1.5,6.4-1.7c2.2-0.3,4.4-0.2,6.6,0.2
	c0.8,0.2,1.3,0.9,1.1,1.7c-0.1,0.6-0.6,1.1-1.2,1.2l-0.1,0c-1.9,0.3-3.9,0.6-5.7,1c-1.9,0.4-3.7,0.9-5.5,1.6
	c-1.8,0.6-3.5,1.5-5.1,2.5c-1.6,1.1-3.2,2.3-4.6,3.6l-0.1,0.1c-0.3,0.3-0.8,0.3-1.1-0.1C459.7,232,459.6,231.7,459.7,231.4
	L459.7,231.4z"/>
<circle class="st2" cx="534.3" cy="238.8" r="7"/>
<line class="st16" x1="549.5" y1="229.7" x2="530.9" y2="223.1"/>
<path class="st6" d="M496.9,192.1c0,0-16.6,7.6,5.4,19.6c15.7,8.6,59.4,30.5,77.3,22.1s6.9-24.4,3.6-27.7
	C579.1,210.3,506.3,201.5,496.9,192.1z"/>
<path class="st17" d="M576.4,225.8c7.5-3.5,10.6-8.2,11.3-13c-1.1-2.5-2.6-4.7-4.5-6.7c-4.2,4.2-76.9-4.6-86.3-14
	c0,0-4,8.6-0.6,15.3C538.4,229.7,557.2,234.8,576.4,225.8z"/>
<path class="st9" d="M496.9,192.1c0,0-16.6,7.6,5.4,19.6c15.7,8.6,59.4,30.5,77.3,22.1s6.9-24.4,3.6-27.7
	C579.1,210.3,506.3,201.5,496.9,192.1z"/>
<path class="st18" d="M582.8,215.9c-13.5,7.1-38.2-2.6-67.2-7.5s-86.8-5.6-98.2-23.8s4.5-58.4,47.9-54
	c41.4,4.2,77.3,19.9,117.5,44.2C600.6,185.6,595.2,209.4,582.8,215.9z"/>
<path class="st19" d="M583.8,200.2c-13.2,7-37.4-2.5-65.7-7.3s-84.9-5.5-96-23.3c-2.9-4.6-4-10.7-3.3-17.2
	c-6.1,11.1-6.6,23.9-1.4,32.2c11.4,18.2,69.3,18.9,98.2,23.8s53.7,14.6,67.2,7.5c8.3-4.4,13.5-16.6,10.6-27.5
	C591.5,193.6,588.1,198,583.8,200.2z"/>
<path class="st9" d="M582.8,215.9c-13.5,7.1-38.2-2.6-67.2-7.5s-86.8-5.6-98.2-23.8s4.5-58.4,47.9-54c41.4,4.2,77.3,19.9,117.5,44.2
	C600.6,185.6,595.2,209.4,582.8,215.9z"/>
<path class="st20" d="M468,371.7c7.9,3.5,18.8,36.6,25.3,66.9c8.7,40.2,11.4,103.9-4.9,107.4c-21.4,4.6-50.4-8.5-50.4-14
	s15.8-49.3,12.1-89.2c-3.5-37.8-12.1-58-12.1-61.2S462,369,468,371.7z"/>
<path class="st21" d="M451.8,446.7c-3.5-37.8-12.1-58-12.1-61.2s24-12.5,29.9-9.9c2.9,1.3,6.2,6.6,9.5,14.2
	c-3.9-9.8-7.8-16.7-11.2-18.2c-6-2.7-29.9,6.7-29.9,9.9s8.6,23.4,12.1,61.2c3.7,39.9-12.1,83.7-12.1,89.2c0,0.8,0.6,1.8,1.8,2.9
	C441.3,526,455.3,484.6,451.8,446.7z"/>
<path class="st21" d="M457,443.3c-4-21.5-10.2-42.4-18.6-62.6c-0.2,0.2-0.3,0.5-0.3,0.8c0,3.2,8.6,23.4,12.1,61.2
	c3.7,39.9-12.1,83.7-12.1,89.2c0,2.6,6.2,6.7,15,10C452.7,535.1,465.1,486.2,457,443.3z"/>
<path class="st9" d="M468,371.7c7.9,3.5,18.8,36.6,25.3,66.9c8.7,40.2,11.4,103.9-4.9,107.4c-21.4,4.6-50.4-8.5-50.4-14
	s15.8-49.3,12.1-89.2c-3.5-37.8-12.1-58-12.1-61.2S462,369,468,371.7z"/>
<path class="st20" d="M539.3,372.5c-7.9,3.5-18.8,36.6-25.3,66.9c-8.7,40.2-11.4,103.9,4.9,107.4c21.4,4.6,50.4-8.5,50.4-14
	s-15.8-49.3-12.1-89.2c3.5-37.8,12.1-58,12.1-61.2S545.3,369.8,539.3,372.5z"/>
<path class="st21" d="M557.2,443.6c3.5-37.8,12.1-58,12.1-61.2s-24-12.5-29.9-9.9c-0.6,0.3-1.2,0.7-1.6,1.1
	c9.8,1.3,25.9,8.1,25.9,10.8c0,3.4-9.1,24.9-12.9,65.1c-3.3,36,8.2,74.9,11.8,89.5c4.2-2.3,6.7-4.6,6.7-6.3
	C569.2,527.3,553.4,483.5,557.2,443.6z"/>
<path class="st9" d="M539.3,372.5c-7.9,3.5-18.8,36.6-25.3,66.9c-8.7,40.2-11.4,103.9,4.9,107.4c21.4,4.6,50.4-8.5,50.4-14
	s-15.8-49.3-12.1-89.2c3.5-37.8,12.1-58,12.1-61.2S545.3,369.8,539.3,372.5z"/>
<path class="st10" d="M562.8,467.1c5.3,8.3,16.6,18.7,30.9,10.5c11.8-6.8,16.8-21.9,20.7-36.7c6.7-25.3-7.9-28.2-7.9-28.2
	s-12.8,5.4-14.6,7.3s-3.5,1.1-6.7,9s-2.5,19.8-2.5,19.8s-2.5-26.8-2.8-33.5c-1.2-20.9-11.1-33.1-13.3-30.9S542.6,435.4,562.8,467.1z
	"/>
<path class="st11" d="M579.7,413c-0.6-7.9-2.8-15.5-6.5-22.5c0.6,2.9,0.9,5.9,1.1,8.9c0.4,6.7,2.8,33.5,2.8,33.5
	S576.4,420.9,579.7,413L579.7,413z"/>
<path class="st11" d="M610.6,414.8c-0.2,3.4-0.8,6.8-1.7,10.1c-3.9,14.8-8.9,29.9-20.7,36.7c-14.3,8.2-25.6-2.2-30.9-10.5
	c-0.6-1-1.2-1.9-1.7-2.9c1.2,6.7,3.7,13.1,7.3,18.9c5.3,8.3,16.6,18.7,30.9,10.5c11.8-6.8,16.8-21.9,20.7-36.7
	C618.7,424.7,614.3,417.7,610.6,414.8z"/>
<path class="st9" d="M562.8,467.1c5.3,8.3,16.6,18.7,30.9,10.5c11.8-6.8,16.8-21.9,20.7-36.7c6.7-25.3-7.9-28.2-7.9-28.2
	s-12.8,5.4-14.6,7.3s-3.5,1.1-6.7,9s-2.5,19.8-2.5,19.8s-2.5-26.8-2.8-33.5c-1.2-20.9-11.1-33.1-13.3-30.9S542.6,435.4,562.8,467.1z
	"/>
<path class="st3" d="M492.3,595c0,0,9.8,5.3,23.1-1.8"/>
<path class="st22" d="M401.9,558.7c-4.7-6.8-16.7-28.5-10.9-51.2c8.6-34,50.9-61.6,84.3-61.4c28.8,0.2,28.8,0.2,71.7,12.3
	c-3.8,44.4-3.8,44.4-13.8,71.4c-11.6,31.3-52.3,61.1-87.2,57.1C422.7,584.4,406.5,565.5,401.9,558.7z"/>
<path class="st23" d="M392.6,489.2c0,0,3.5,19.6,12.2,28.3c4.8,4.8,8.3,6.8,10.5,7.5c1.2,0.4,2.6-0.2,3-1.5c0-0.1,0.1-0.2,0.1-0.3
	l1.3-5.8c0,0,16.7,1.6,24.7,0c5,5,13.6,7.1,23,4.8c8.4-2.1,32.9-16.9,32.9-20.2s-62.4-5.3-62.4-5.3L392.6,489.2z"/>
<path class="st23" d="M534.1,515.2c-11.6,31.3-52.3,61.1-87.2,57.1c-23.2-2.7-39.3-21.6-44-28.3c-3.5-5.1-11.2-18.7-12.3-34.8
	c-4.8,22,6.8,42.9,11.3,49.5c4.7,6.8,20.8,25.7,44,28.3c34.9,4,75.6-25.8,87.2-57.1c10-27,10-27,13.8-71.4l-0.3-0.1
	C544,488.6,542.9,491.5,534.1,515.2z"/>
<path class="st3" d="M401.9,558.7c-4.7-6.8-16.7-28.5-10.9-51.2c8.6-34,50.9-61.6,84.3-61.4c28.8,0.2,28.8,0.2,71.7,12.3
	c-3.8,44.4-3.8,44.4-13.8,71.4c-11.6,31.3-52.3,61.1-87.2,57.1C422.7,584.4,406.5,565.5,401.9,558.7z"/>
<polygon class="st24" points="509.3,501 493.9,478.6 640.3,380.7 652.7,398.6 "/>
<polygon class="st25" points="648.2,392.1 507.7,492.5 496.8,476.7 493.9,478.6 509.3,501 652.7,398.6 "/>
<polygon class="st3" points="509.3,501 493.9,478.6 640.3,380.7 652.7,398.6 "/>
<path class="st2" d="M448.4,551.6c-10-9.7-17.9-21.3-23.5-34c-0.3-0.9,1.5-2.2,2.3-1.6c10,9.7,18,21.2,23.5,34
	C451.2,551.1,449.3,552.4,448.4,551.6z"/>
<ellipse transform="matrix(0.8226 -0.5686 0.5686 0.8226 -195.1809 367.6375)" class="st12" cx="491.7" cy="496.7" rx="17.5" ry="25.5"/>
<path class="st2" d="M506.8,507.2c-8,5.5-19.7,2.3-28.9-11c-2.9-4.1-5-8.7-6-13.6c-2.3,6.3-0.9,14.9,5.4,24
	c9.2,13.3,20.9,16.5,28.9,11c5.1-3.5,7.4-9.8,5.9-17.3C511.1,503.1,509.2,505.5,506.8,507.2z"/>
<ellipse transform="matrix(0.8226 -0.5686 0.5686 0.8226 -195.1809 367.6375)" class="st26" cx="491.7" cy="496.7" rx="17.5" ry="25.5"/>
<line class="st16" x1="651.1" y1="354.8" x2="654.9" y2="361.2"/>
<path class="st2" d="M654.8,350.3l0.8,1.4c0.5,0.9,0.2,2.1-0.7,2.7l-6,3.5c-0.9,0.5-2.1,0.2-2.7-0.7l-0.8-1.4
	c-0.5-0.9-0.2-2.1,0.7-2.7l6-3.5C653,349.1,654.2,349.4,654.8,350.3z"/>
<line class="st16" x1="633.6" y1="361.6" x2="638.8" y2="370.6"/>
<path class="st2" d="M637.3,357.2l0.8,1.4c0.5,0.9,0.2,2.1-0.7,2.7l-6,3.5c-0.9,0.5-2.1,0.2-2.7-0.7l-0.8-1.4
	c-0.5-0.9-0.2-2.1,0.7-2.7l6-3.5C635.5,355.9,636.7,356.2,637.3,357.2z"/>
<line class="st16" x1="680.8" y1="397.7" x2="676.1" y2="391.9"/>
<path class="st2" d="M677.8,402.6l-1-1.2c-0.7-0.8-0.6-2.1,0.3-2.8l5.4-4.4c0.8-0.7,2.1-0.6,2.8,0.3l1,1.2c0.7,0.8,0.6,2.1-0.3,2.8
	l-5.4,4.4C679.7,403.6,678.5,403.5,677.8,402.6z"/>
<line class="st16" x1="668.2" y1="411.6" x2="661.6" y2="403.6"/>
<path class="st2" d="M665.2,416.6l-1-1.2c-0.7-0.8-0.6-2.1,0.3-2.8l5.4-4.4c0.8-0.7,2.1-0.6,2.8,0.3l1,1.2c0.7,0.8,0.6,2.1-0.3,2.8
	l-5.4,4.4C667.1,417.6,665.9,417.4,665.2,416.6z"/>
<path class="st22" d="M689.1,368.8l-8-11.6c-3.2-4.7-9.4-6.1-14.3-3.4l-43.1,25.5c-1.8,1-3.1,2.7-3.6,4.7l-3.4,15.4l10.1,14.6
	l15.6,2.2c2.1,0.2,4.1-0.4,5.7-1.7l39.1-31.3C691.5,379.8,692.3,373.4,689.1,368.8z"/>
<path class="st23" d="M691,372.4l-2-3.6c0.4,3.1-4.7,6.9-7.6,8.9l-39.1,27.7c-1.7,1.2-3.7,1.7-5.7,1.5l-15.6-2l-4-5.2l-0.4,1.6
	l10.1,13l15.6,2c2,0.2,4.1-0.3,5.7-1.5l37-29.8C689.4,382,694.2,376.5,691,372.4z"/>
<path class="st16" d="M689.1,368.8l-8-11.6c-3.2-4.7-9.4-6.1-14.3-3.4l-43.1,25.5c-1.8,1-3.1,2.7-3.6,4.7l-3.4,15.4l10.1,14.6
	l15.6,2.2c2.1,0.2,4.1-0.4,5.7-1.7l39.1-31.3C691.5,379.8,692.3,373.4,689.1,368.8z"/>
<path class="st24" d="M389.6,547c2.7,11.2,9.4,20.9,18.9,27.4c4.8-9.2,1.3-20.5-7.9-25.3C397.2,547.3,393.3,546.6,389.6,547z"/>
<path class="st3" d="M389.6,547c2.7,11.2,9.4,20.9,18.9,27.4c4.8-9.2,1.3-20.5-7.9-25.3C397.2,547.3,393.3,546.6,389.6,547z"/>
<path class="st4" d="M493.3,496.8c2.7-1,4.4-4.8,3.3-8.3c-1.1-3.2-5.4-2.7-5.4-2.7s4.3-7.4-1.9-10c-4.8-2.1-24.1,14.5-27.5,8.6
	c2.4-5,3.3-10.6,2.5-16.1c-6.3-6.3-17,9.8-17,22.5c-12.2-0.1-22.6-4.2-26.6-12.5l-12,25.8c10,5.9,20.6,9.2,37.7,7
	c3.8,7.1,18.9,5.8,28.5,3.4c11.5-2.9,17.6-5.8,20.8-9.7C499.1,500.7,496.8,496.8,493.3,496.8z"/>
<path class="st5" d="M497,491.1c-0.5,0.5-1.1,0.9-1.7,1.1c0.5,0,1,0.1,1.5,0.3C496.9,492.1,496.9,491.6,497,491.1z"/>
<path class="st5" d="M476.8,510c-9.5,2.4-24.7,3.8-28.5-3.4c-17,2.2-27.6-1.1-37.5-6.9l-2.1,4.4c10,5.9,20.6,9.2,37.7,7
	c3.8,7.1,18.9,5.8,28.5,3.4c11.5-2.9,17.6-5.8,20.8-9.7c1.1-1.2,1.7-2.7,1.7-4.3C494.1,504.3,488.1,507.1,476.8,510z"/>
<path class="st5" d="M451,476.5c-1.5,3-2.6,6.3-3.2,9.6c0.5,0,1,0,1.5,0C449.3,482.9,449.9,479.6,451,476.5z"/>
<path class="st9" d="M493.3,496.8c2.7-1,4.4-4.8,3.3-8.3c-1.1-3.2-5.4-2.7-5.4-2.7s4.3-7.4-1.9-10c-4.8-2.1-24.1,14.5-27.5,8.6
	c2.4-5,3.3-10.6,2.5-16.1c-6.3-6.3-17,9.8-17,22.5c-12.2-0.1-22.6-4.2-26.6-12.5l-12,25.8c10,5.9,20.6,9.2,37.7,7
	c3.8,7.1,18.9,5.8,28.5,3.4c11.5-2.9,17.6-5.8,20.8-9.7C499.1,500.7,496.8,496.8,493.3,496.8z"/>
<path class="st27" d="M476.2,492.6c7.5-1.5,15-6.8,15-6.8"/>
<path class="st27" d="M478.2,502.1c6.8-0.7,15.1-5.3,15.1-5.3"/>
<path class="st10" d="M427.9,482.3c-1.7-1.5-3.1-1.8-5.6-5.2c-18.8-24.9,14.3-53.4,25.7-52.4c8.2-28.7-9.3-40.3-9.3-40.3
	c-37.9,18.4-60.3,51.3-51.9,94c3.6,18.1,13.5,30.2,29.8,35.1C417.5,504.2,424.3,491.6,427.9,482.3z"/>
<path class="st11" d="M389.7,468c-2.3-11.1-2.4-22.5-0.1-33.6c-4.8,13.1-6,27.8-2.8,43.9c3.6,18.1,13.5,30.2,29.8,35.1
	c0.5-3.6,1.4-7,2.7-10.4C403,498,393.2,486,389.7,468z"/>
<path class="st11" d="M419.7,448.1c6.4-13.7,21.3-24,28.2-23.4c1-3.4,1.6-6.8,2-10.3C440.8,414.8,421.4,430.2,419.7,448.1z"/>
<path class="st11" d="M419.7,501.9c2.5-6.7,6-13.8,8.2-19.6c-0.4-0.3-0.7-0.6-1-0.8C423.8,488.4,420.6,495.8,419.7,501.9z"/>
<path class="st9" d="M427.9,482.3c-1.7-1.5-3.1-1.8-5.6-5.2c-18.8-24.9,14.3-53.4,25.7-52.4c8.2-28.7-9.3-40.3-9.3-40.3
	c-37.9,18.4-60.3,51.3-51.9,94c3.6,18.1,13.5,30.2,29.8,35.1C417.5,504.2,424.3,491.6,427.9,482.3z"/>
<path class="st4" d="M590.9,428.4c4.1,9.8,6,11.1,1.8,15.2c-1.7,1.7,3.7,4.3,7.4,2.3s5.7-4,5.7-7.7c0-1.4-0.9-12.5-4.2-15.3
	C597.2,418.9,587.7,420.9,590.9,428.4z"/>
<path class="st5" d="M604.8,430.4c-0.8,0.9-0.5,2.4-3,4.9c-2,2-5.6,2.4-7.2,2.2c0.8,2.5,0.3,3.9-2,6.2c-1.7,1.7,3.7,4.3,7.4,2.3
	c1.5-0.7,2.8-1.7,4-2.9c0.2-3.4,0.6-6.9,1.2-10.3C605.2,432,605,431.2,604.8,430.4z"/>
<path class="st4" d="M605.2,426.2c0,12.1,0.5,15.8,3.1,15.3s5.1-1.3,6-2.7s2.6-3.9,2.3-10.5c-0.1-3.8-0.6-7.5-1.5-11.2
	C614.3,413,605.2,413.5,605.2,426.2z"/>
<path class="st5" d="M605.3,433.3c0.2,6.5,1,8.6,3,8.2c2.7-0.5,5.1-1.3,6-2.7s2.6-3.9,2.3-10.5c0-0.3,0-0.7,0-1
	C611,436.3,606.1,433.6,605.3,433.3z"/>
<path class="st4" d="M623.4,410.4c-3.5,0-6,3.2-5.7,11.8c0.5,12.4,1.5,13.2,4.5,13c4.8-0.3,6.7-14.3,6.3-17.1
	C627.3,409.7,626,410.4,623.4,410.4z"/>
<path class="st5" d="M627.7,425.8c-3.3,1.5-7.4,3.3-9.8,0.9c0.6,8,1.7,8.6,4.3,8.5C625,435.1,626.8,430.3,627.7,425.8z"/>
<path class="st9" d="M590.9,428.4c4.1,9.8,6,11.1,1.8,15.2c-1.7,1.7,3.7,4.3,7.4,2.3s5.7-4,5.7-7.7c0-1.4-0.9-12.5-4.2-15.3
	C597.2,418.9,587.7,420.9,590.9,428.4z"/>
<path class="st9" d="M605.2,426.2c0,12.1,0.5,15.8,3.1,15.3s5.1-1.3,6-2.7s2.6-3.9,2.3-10.5c-0.1-3.8-0.6-7.5-1.5-11.2
	C614.3,413,605.2,413.5,605.2,426.2z"/>
<path class="st9" d="M623.4,410.4c-3.5,0-6,3.2-5.7,11.8c0.5,12.4,1.5,13.2,4.5,13c4.8-0.3,6.7-14.3,6.3-17.1
	C627.3,409.7,626,410.4,623.4,410.4z"/>
<path class="st28" d="M597.3,396.2c-0.8,4.6-6.5,13-5.7,17.1c4.6-2.9,11.7-5.6,16-12.7c1.8-3,1.6-9.5-1.3-11.6
	C602.6,386.3,598,392.1,597.3,396.2z"/>
<path class="st8" d="M440,146.8c-4,2.8-9,8-10,14.8"/>
<path class="st8" d="M446.5,143.7c-0.9,0.3-1.7,0.7-2.5,1.1"/>
<path class="st5" d="M490.8,310.8c2.1-1,4.3-1.7,6.5-2.1c2.2-0.4,4.5-0.7,6.8-0.7c1.1,0,2.3,0.1,3.4,0.1c1.1,0.2,2.3,0.2,3.4,0.5
	c2.3,0.4,4.4,1.1,6.5,2.1c0.3,0.1,0.4,0.4,0.2,0.7c-0.1,0.2-0.3,0.3-0.5,0.3h0c-2.2-0.2-4.4-0.6-6.5-0.7c-2.2-0.2-4.3-0.3-6.5-0.2
	c-4.4,0-8.7,0.4-13.1,0.9h0c-0.3,0-0.5-0.2-0.6-0.4C490.4,311.1,490.6,310.9,490.8,310.8L490.8,310.8z"/>
<path class="st2" d="M534.6,278.4c0.8,0.2,1.6,0.6,2.2,1c0.7,0.5,1.3,1,1.8,1.7c0.5,0.6,1,1.3,1.3,2.1c0.3,0.7,0.6,1.5,0.6,2.4
	c0,0.1-0.1,0.3-0.2,0.3c-0.1,0-0.2,0-0.2-0.1l0,0c-0.4-0.7-0.8-1.3-1.2-1.9c-0.4-0.6-0.8-1.2-1.3-1.8c-1-1.1-2-2.2-3.2-3.1l0,0
	c-0.1-0.1-0.1-0.3,0-0.4C534.4,278.4,534.5,278.4,534.6,278.4z"/>
<path class="st2" d="M465.7,286c0.2-0.8,0.6-1.5,1-2.2c0.5-0.7,1-1.3,1.7-1.8c0.6-0.5,1.3-1,2.1-1.3c0.7-0.3,1.5-0.6,2.4-0.6
	c0.1,0,0.3,0.1,0.3,0.2c0,0.1,0,0.2-0.1,0.2l0,0c-0.7,0.4-1.3,0.8-1.9,1.2c-0.6,0.4-1.2,0.8-1.8,1.3c-1.1,1-2.2,2-3.1,3.2l0,0
	c-0.1,0.1-0.3,0.1-0.4,0C465.7,286.2,465.7,286.1,465.7,286L465.7,286z"/>
</svg>
