<?xml version="1.0" encoding="utf-8"?>
<!-- Generator: Adobe Illustrator 25.0.1, SVG Export Plug-In . SVG Version: 6.00 Build 0)  -->
<svg version="1.1" id="Layer_1" xmlns="http://www.w3.org/2000/svg" xmlns:xlink="http://www.w3.org/1999/xlink" x="0px" y="0px"
	 viewBox="0 0 1000 1000" style="enable-background:new 0 0 1000 1000;" xml:space="preserve">
<style type="text/css">
	.st0{fill:#362C44;}
	.st1{fill:#0F0021;}
	.st2{fill:#D14C18;}
	.st3{fill:none;stroke:#0F0021;stroke-width:6;stroke-linecap:round;stroke-linejoin:round;stroke-miterlimit:10;}
	.st4{fill:#1F0938;}
	.st5{fill:#1A0A30;}
	.st6{fill:#E25A1E;}
	.st7{fill:#ED8037;}
	.st8{fill:#E87D34;}
	.st9{fill:#F7984B;}
</style>
<rect id="XMLID_16_" class="st0" width="1000" height="1000"/>
<ellipse id="XMLID_28_" class="st1" cx="500" cy="676.9" rx="198.6" ry="18.1"/>
<ellipse id="XMLID_10_" class="st2" cx="500.3" cy="398.5" rx="67.2" ry="31.5"/>
<ellipse id="XMLID_9_" class="st3" cx="500.3" cy="398.5" rx="67.2" ry="31.5"/>
<path id="XMLID_24_" class="st1" d="M523.2,299.5c0,0-16.1,4.6-26.1,28.6s-0.6,63.9-0.6,63.9H516c0,0-7-25,0.5-42.8
	c4.2-10,23.1-22.9,23.1-22.9S545,305.5,523.2,299.5z"/>
<path id="XMLID_41_" class="st4" d="M503.1,334.1c10-24,26.1-28.6,26.1-28.6c3.2,0.9,5.7,2.1,7.8,3.4c-2.5-3.9-6.7-7.5-13.8-9.4
	c0,0-16.1,4.6-26.1,28.6s-0.6,63.9-0.6,63.9h4.8C499.1,379.9,495.5,352.4,503.1,334.1z"/>
<ellipse id="XMLID_31_" transform="matrix(0.8594 -0.5114 0.5114 0.8594 -86.0132 314.5994)" class="st5" cx="528.9" cy="313.7" rx="6.9" ry="13.9"/>
<path id="XMLID_15_" class="st3" d="M523.2,299.5c0,0-16.1,4.6-26.1,28.6s-0.6,63.9-0.6,63.9H516c0,0-7-25,0.5-42.8
	c4.2-10,23.1-22.9,23.1-22.9S545,305.5,523.2,299.5z"/>
<path id="XMLID_17_" class="st6" d="M688.7,484.2c-3.4-30.5-11.7-57.1-28.3-73.8c-15.6-17-38.6-23.1-63.5-23.2
	c6.3,3.1,12,7.6,17,13.8c14.9,16.8,22.4,45.6,25.5,79.3c2.8,34.3,0.9,71.8-9.2,106.8c-10.8,38.9-31.6,72.2-61.2,84.4
	c57.2-1.9,93.9-43.5,109.7-90.8C689.7,548.8,691.8,515.1,688.7,484.2z"/>
<path id="XMLID_35_" class="st2" d="M688.7,484.2c-3.4-30.5-11.7-57.1-28.3-73.8c-15.6-17-38.6-23.1-63.5-23.2
	c1.1,0.5,2.2,1.1,3.2,1.8c16.5,2.8,31.3,9.4,42.3,21.4c16.7,16.6,25,43.3,28.3,73.8c3.1,30.9,1,64.7-10.1,96.6
	c-13.3,39.8-41.4,75.6-84,87c-2.5,1.4-5.1,2.7-7.7,3.8c57.2-1.9,93.9-43.5,109.7-90.8C689.7,548.8,691.8,515.1,688.7,484.2z"/>
<path id="XMLID_7_" class="st3" d="M688.7,484.2c-3.4-30.5-11.7-57.1-28.3-73.8c-15.6-17-38.6-23.1-63.5-23.2
	c6.3,3.1,12,7.6,17,13.8c14.9,16.8,22.4,45.6,25.5,79.3c2.8,34.3,0.9,71.8-9.2,106.8c-10.8,38.9-31.6,72.2-61.2,84.4
	c57.2-1.9,93.9-43.5,109.7-90.8C689.7,548.8,691.8,515.1,688.7,484.2z"/>
<path id="XMLID_19_" class="st7" d="M639.4,480.3c-3.1-33.7-10.6-62.5-25.5-79.3c-20.8-25.9-55.2-21.9-85.7-10.6
	c12.4,6.1,23.1,17.3,29.1,37.5c5.3,16.2,7.8,38.5,8.8,62.8c0.9,24.4,0.3,50.8-3,76.6c-5.4,43.5-20.2,90.5-50,103
	c59.7,23.8,100.4-23,117.1-83C640.3,552.1,642.2,514.6,639.4,480.3z"/>
<path id="XMLID_37_" class="st8" d="M639.4,480.3c-3.1-33.7-10.6-62.5-25.5-79.3c-14.9-18.6-36.8-21.8-59.2-18
	c11.1,2.4,21.2,7.9,29.2,18c14.9,16.8,22.4,45.6,25.5,79.3c2.8,34.3,0.9,71.8-9.2,106.8c-12,43.3-36.6,79.7-71.7,87.7
	c51.3,10.7,86.5-33,101.7-87.7C640.3,552.1,642.2,514.6,639.4,480.3z"/>
<path id="XMLID_8_" class="st3" d="M639.4,480.3c-3.1-33.7-10.6-62.5-25.5-79.3c-20.8-25.9-55.2-21.9-85.7-10.6
	c12.4,6.1,23.1,17.3,29.1,37.5c5.3,16.2,7.8,38.5,8.8,62.8c0.9,24.4,0.3,50.8-3,76.6c-5.4,43.5-20.2,90.5-50,103
	c59.7,23.8,100.4-23,117.1-83C640.3,552.1,642.2,514.6,639.4,480.3z"/>
<path id="XMLID_20_" class="st6" d="M310.3,484.2c3.4-30.5,11.7-57.1,28.3-73.8c15.6-17,38.6-23.1,63.5-23.2
	c-6.3,3.1-12,7.6-17,13.8c-14.9,16.8-22.4,45.6-25.5,79.3c-2.8,34.3-0.9,71.8,9.2,106.8c10.8,38.9,31.6,72.2,61.2,84.4
	c-57.2-1.9-93.9-43.5-109.7-90.8C309.4,548.8,307.3,515.1,310.3,484.2z"/>
<path id="XMLID_34_" class="st2" d="M342.4,580.7c-11.1-31.9-13.2-65.6-10.1-96.6c3.4-30.5,11.7-57.1,28.3-73.8
	c9.7-10.6,22.2-16.9,36.3-20.2c1.7-1.1,3.4-2.1,5.2-3c-24.9,0.1-47.9,6.2-63.5,23.2c-16.7,16.6-25,43.3-28.3,73.8
	c-3.1,30.9-1,64.7,10.1,96.6c15.8,47.3,52.5,88.9,109.7,90.8c-4.1-1.7-8.1-3.8-11.9-6.3C380.2,651.6,354.9,617.9,342.4,580.7z"/>
<path id="XMLID_6_" class="st3" d="M310.3,484.2c3.4-30.5,11.7-57.1,28.3-73.8c15.6-17,38.6-23.1,63.5-23.2c-6.3,3.1-12,7.6-17,13.8
	c-14.9,16.8-22.4,45.6-25.5,79.3c-2.8,34.3-0.9,71.8,9.2,106.8c10.8,38.9,31.6,72.2,61.2,84.4c-57.2-1.9-93.9-43.5-109.7-90.8
	C309.4,548.8,307.3,515.1,310.3,484.2z"/>
<path id="XMLID_22_" class="st7" d="M359.7,480.3c3.1-33.7,10.6-62.5,25.5-79.3c20.8-25.9,55.2-21.9,85.7-10.6
	c-12.4,6.1-23.1,17.3-29.1,37.5c-5.3,16.2-7.8,38.5-8.8,62.8c-0.9,24.4-0.3,50.8,3,76.6c5.4,43.5,20.2,90.5,50,103
	c-59.7,23.8-100.4-23-117.1-83C358.8,552.1,356.9,514.6,359.7,480.3z"/>
<path id="XMLID_36_" class="st8" d="M402.9,587.1c-10.1-35-12-72.5-9.2-106.8c3.1-33.7,10.6-62.5,25.5-79.3
	c7.6-9.5,17.1-15,27.5-17.6c-23.2-4.4-46.1-1.7-61.5,17.6c-14.9,16.8-22.4,45.6-25.5,79.3c-2.8,34.3-0.9,71.8,9.2,106.8
	c15.4,55.5,51.3,99.7,103.8,87.3C438.6,665.5,414.7,629.7,402.9,587.1z"/>
<path id="XMLID_1_" class="st3" d="M359.7,480.3c3.1-33.7,10.6-62.5,25.5-79.3c20.8-25.9,55.2-21.9,85.7-10.6
	c-12.4,6.1-23.1,17.3-29.1,37.5c-5.3,16.2-7.8,38.5-8.8,62.8c-0.9,24.4-0.3,50.8,3,76.6c5.4,43.5,20.2,90.5,50,103
	c-59.7,23.8-100.4-23-117.1-83C358.8,552.1,356.9,514.6,359.7,480.3z"/>
<path id="XMLID_23_" class="st9" d="M441.7,428.3c-5.3,16.4-7.8,38.9-8.8,63.5c-0.9,24.7-0.3,51.4,3,77.4
	c6.2,50.5,24.8,105.5,64.1,107.3l0,0c39.3-1.7,57.9-56.8,64.1-107.3c3.3-26,3.9-52.8,3-77.4c-1-24.6-3.5-47.1-8.8-63.5
	c-10.6-35.5-35.1-43.7-58.3-44.6l0,0C476.8,384.6,452.3,392.8,441.7,428.3z"/>
<path id="XMLID_21_" class="st3" d="M441.7,428.3c-5.3,16.4-7.8,38.9-8.8,63.5c-0.9,24.7-0.3,51.4,3,77.4
	c6.2,50.5,24.8,105.5,64.1,107.3l0,0c39.3-1.7,57.9-56.8,64.1-107.3c3.3-26,3.9-52.8,3-77.4c-1-24.6-3.5-47.1-8.8-63.5
	c-10.6-35.5-35.1-43.7-58.3-44.6l0,0C476.8,384.6,452.3,392.8,441.7,428.3z"/>
<path id="XMLID_30_" class="st6" d="M530.8,501c-1.5-2.7-0.6-6.3,2-7.4c9.5-3.8,30.2-14.2,34.9-33.2c6.1-24.9,29.4,13.8,24.6,38.9
	C588.5,519.4,546.7,528.3,530.8,501z"/>
<path id="XMLID_29_" class="st1" d="M530.8,494.4c-1.5-2.7-0.6-6.3,2-7.4c9.5-3.8,30.2-14.2,34.9-33.2c6.1-24.9,29.4,13.8,24.6,38.9
	C588.5,512.8,546.7,521.7,530.8,494.4z"/>
<path id="XMLID_11_" class="st3" d="M530.8,494.4c-1.5-2.7-0.6-6.3,2-7.4c9.5-3.8,30.2-14.2,34.9-33.2c6.1-24.9,29.4,13.8,24.6,38.9
	C588.5,512.8,546.7,521.7,530.8,494.4z"/>
<path id="XMLID_4_" class="st6" d="M469,499.2c1.6-2.8,0.6-6.8-2.1-7.9c-9.8-4.1-31.3-15.1-36.1-35.5c-6.3-26.6-30.4,14.8-25.4,41.5
	C409.3,518.9,452.6,528.4,469,499.2z"/>
<path id="XMLID_26_" class="st1" d="M469.2,494.4c1.5-2.7,0.6-6.3-2-7.4c-9.5-3.8-30.2-14.2-34.9-33.2
	c-6.1-24.9-29.4,13.8-24.6,38.9C411.5,512.8,453.3,521.7,469.2,494.4z"/>
<circle id="XMLID_12_" class="st9" cx="453.1" cy="494" r="8.8"/>
<circle id="XMLID_27_" class="st9" cx="544.1" cy="494" r="8.8"/>
<path id="XMLID_13_" class="st3" d="M469.2,494.4c1.5-2.7,0.6-6.3-2-7.4c-9.5-3.8-30.2-14.2-34.9-33.2
	c-6.1-24.9-29.4,13.8-24.6,38.9C411.5,512.8,453.3,521.7,469.2,494.4z"/>
<path id="XMLID_32_" class="st6" d="M557.8,573.5L560,585l-24.1,7.1l-2-10.6c-10.6,2.3-21.9,3.5-33.6,3.5
	c-35.3,0-66.7-11.2-86.5-28.4c2.4,20.1,16.6,37.5,37.2,48.4c1.8,0.9,3.9,0.1,4.6-1.9l2.9-8.1l21.2,6l-3.3,9.1
	c-0.7,2,0.5,4.1,2.5,4.5c6.8,1.3,14,2,21.3,2c45.3,0,82.5-26.4,86.5-60C578.1,564,570,568.7,557.8,573.5z"/>
<path id="XMLID_25_" class="st1" d="M556.5,570.1l2.2,11.5l-21.9,5.5l-2.1-10.6c-10.8,2.3-22.3,3.5-34.2,3.5
	c-36,0-67.9-11.2-88.1-28.4c2.6,21.1,18.4,39.4,41.3,50.1l4.2-11.7l21.6,6l-4.7,12.8c8.1,1.8,16.7,2.8,25.6,2.8
	c46.1,0,84-26.4,88.1-60C580,559,569,565.3,556.5,570.1z"/>
</svg>
