<?xml version="1.0" encoding="utf-8"?>
<!-- Generator: Adobe Illustrator 25.0.1, SVG Export Plug-In . SVG Version: 6.00 Build 0)  -->
<svg version="1.1" id="Layer_1" xmlns="http://www.w3.org/2000/svg" xmlns:xlink="http://www.w3.org/1999/xlink" x="0px" y="0px"
	 viewBox="0 0 1000 1000" style="enable-background:new 0 0 1000 1000;" xml:space="preserve">
<style type="text/css">
	.st0{fill:#D14657;}
	
		.st1{opacity:0.24;stroke:#000000;stroke-width:6;stroke-linecap:round;stroke-linejoin:round;stroke-miterlimit:10;enable-background:new    ;}
	.st2{fill:#FCA417;}
	.st3{opacity:0.33;fill:#FFFFFF;enable-background:new    ;}
	.st4{fill:#FCA84C;}
	.st5{opacity:0.66;fill:#FCA84C;enable-background:new    ;}
	.st6{fill:none;stroke:#000000;stroke-width:6;stroke-linecap:round;stroke-linejoin:round;stroke-miterlimit:10;}
	.st7{fill:#514447;}
	.st8{fill:none;stroke:#000000;stroke-width:4;stroke-linecap:round;stroke-linejoin:round;stroke-miterlimit:10;}
	.st9{fill:#83906F;}
	.st10{fill:#664A4A;}
	.st11{fill:#FF1F1F;}
</style>
<rect class="st0" width="1000" height="1000"/>
<path id="XMLID_81_" class="st1" d="M630.6,766.8h-242c-5.5,0-10-4.5-10-10V285.9c0-5.5,4.5-10,10-10h280c5.5,0,10,4.5,10,10v432.9
	C678.6,745.3,657.1,766.8,630.6,766.8z"/>
<g id="XMLID_5_">
	<path id="XMLID_125_" class="st2" d="M602,745.5H360c-5.5,0-10-4.5-10-10v-471c0-5.5,4.5-10,10-10h280c5.5,0,10,4.5,10,10v432.9
		C650,724,628.5,745.5,602,745.5z"/>
	<path id="XMLID_123_" class="st3" d="M361.8,731.8V268.2c0-7.5,6.1-13.6,13.6-13.6h-11.8c-7.5,0-13.6,6.1-13.6,13.6v463.6
		c0,7.5,6.1,13.6,13.6,13.6h11.8C367.9,745.5,361.8,739.3,361.8,731.8z"/>
	<circle id="XMLID_121_" class="st4" cx="440" cy="591.4" r="51.8"/>
	<path id="XMLID_119_" class="st5" d="M402.1,561c17.5-21.9,49.2-25.8,71.5-9.1c-0.4-0.3-0.8-0.7-1.2-1c-22.3-17.9-55-14.3-72.8,8.1
		s-14.3,55,8.1,72.8c0.4,0.3,0.9,0.7,1.3,1C387.7,614.7,384.5,582.9,402.1,561z"/>
	<g id="XMLID_112_">
		<path id="XMLID_117_" class="st4" d="M636.4,254.5h-12.5c7.5,0,13.9,6.1,13.9,13.6V680c0,36.1-29.5,65.5-65.7,65.5h12.5
			c36.1,0,65.5-29.3,65.5-65.5V268.2C650,260.7,643.9,254.5,636.4,254.5z"/>
		<path id="XMLID_115_" class="st4" d="M544.7,745.5h39.8c36.1,0,65.5-29.3,65.5-65.5v-39.8L544.7,745.5z"/>
		<path id="XMLID_113_" class="st4" d="M584.5,735.9H372c-5.1,0-9.3,4.2-9.3,9.3v0.2h221.8c58.1,0,65.5-29.3,65.5-65.5v-9.5
			C650,706.6,620.7,735.9,584.5,735.9z"/>
	</g>
	<path id="XMLID_111_" class="st6" d="M602,745.5H360c-5.5,0-10-4.5-10-10v-471c0-5.5,4.5-10,10-10h280c5.5,0,10,4.5,10,10v432.9
		C650,724,628.5,745.5,602,745.5z"/>
	<path id="XMLID_110_" class="st7" d="M593.1,482.5H394.9c-2.2,0-4-1.8-4-4v-164c0-2.2,1.8-4,4-4h210.2c2.2,0,4,1.8,4,4v152
		C609.1,475.3,601.9,482.5,593.1,482.5z"/>
	<path id="XMLID_109_" class="st8" d="M593.1,482.5H394.9c-2.2,0-4-1.8-4-4v-164c0-2.2,1.8-4,4-4h210.2c2.2,0,4,1.8,4,4v152
		C609.1,475.3,601.9,482.5,593.1,482.5z"/>
	<path id="XMLID_108_" class="st9" d="M567.2,463.4H432.8c-0.6,0-1-0.4-1-1V338.9c0-0.6,0.4-1,1-1h134.4c0.6,0,1,0.4,1,1v123.5
		C568.2,463,567.7,463.4,567.2,463.4z"/>
	<path id="XMLID_107_" class="st8" d="M567.2,463.4H432.8c-0.6,0-1-0.4-1-1V338.9c0-0.6,0.4-1,1-1h134.4c0.6,0,1,0.4,1,1v123.5
		C568.2,463,567.7,463.4,567.2,463.4z"/>
	<path id="XMLID_106_" class="st8" d="M636.4,254.5H363.6c-7.5,0-13.6,6.1-13.6,13.6v13.6h300v-13.6
		C650,260.7,643.9,254.5,636.4,254.5z"/>
	<line id="XMLID_105_" class="st8" x1="528.6" y1="508.2" x2="609.1" y2="508.2"/>
	<line id="XMLID_104_" class="st8" x1="390.9" y1="508.2" x2="471.4" y2="508.2"/>
	<g id="XMLID_94_">
		<g>
			<g id="XMLID_152_">
				<path id="XMLID_153_" class="st10" d="M474.8,602.5h-67.2c-2.5,0-4.6-2-4.6-4.6v-13.1c0-2.5,2-4.6,4.6-4.6h67.2
					c2.5,0,4.6,2,4.6,4.6v13.1C479.3,600.5,477.3,602.5,474.8,602.5z"/>
			</g>
			<g id="XMLID_150_">
				<path id="XMLID_151_" class="st10" d="M430,625v-67.2c0-2.5,2-4.6,4.6-4.6h13.1c2.5,0,4.6,2,4.6,4.6V625c0,2.5-2,4.6-4.6,4.6
					h-13.1C432,629.5,430,627.5,430,625z"/>
			</g>
		</g>
	</g>
	<path id="XMLID_93_" class="st8" d="M473.6,580.5h-19.1c-1.2,0-2.1-1-2.1-2.1v-18.9c0-3.4-2.8-6.2-6.2-6.2h-9.8
		c-3.2,0-5.8,2.6-5.8,5.8v19.4c0,1.2-1,2.1-2.1,2.1h-19.1c-3.3,0-6,2.7-6,6v9.8c0,3.3,2.7,6,6,6h19.1c1.2,0,2.1,1,2.1,2.1v18.9
		c0,3.4,2.8,6.2,6.2,6.2h9.4c3.4,0,6.2-2.8,6.2-6.2v-18.9c0-1.2,1-2.1,2.1-2.1h18.7c3.6,0,6.4-2.9,6.4-6.4v-9.4
		C479.5,583.1,476.9,580.5,473.6,580.5z"/>
	<g id="XMLID_77_">
		<path id="XMLID_91_" class="st4" d="M557.1,629.2c-5.5,0-10.6-2.1-14.5-6s-6-9-6-14.5s2.1-10.6,6-14.5l34.7-34.7
			c3.9-3.9,9-6,14.5-6s10.6,2.1,14.5,6c8,8,8,21,0,28.9l-34.7,34.7C567.7,627,562.6,629.2,557.1,629.2z"/>
		<path id="XMLID_88_" class="st5" d="M544.2,623.2c-3.9-3.9-6-9-6-14.5s2.1-10.6,6-14.5l34.7-34.7c3.7-3.7,8.5-5.8,13.7-5.9
			c-0.3,0-0.5,0-0.8,0c-5.5,0-10.6,2.1-14.5,6l-34.7,34.7c-3.9,3.9-6,9-6,14.5s2.1,10.6,6,14.5s9,6,14.5,6c0.3,0,0.5,0,0.8,0
			C552.7,628.9,547.9,626.9,544.2,623.2z"/>
		<circle id="XMLID_86_" class="st11" cx="591.8" cy="574" r="13.6"/>
		<circle id="XMLID_80_" class="st11" cx="557.1" cy="608.7" r="13.6"/>
		<circle id="XMLID_79_" class="st8" cx="591.8" cy="574" r="13.6"/>
		<circle id="XMLID_78_" class="st8" cx="557.1" cy="608.7" r="13.6"/>
	</g>
	<path id="XMLID_76_" class="st8" d="M472,683.2l-2.1-2.1c-1.2-1.2-1.2-3.1,0-4.2l21.1-21.1c1.2-1.2,3.1-1.2,4.2,0l2.1,2.1
		c1.2,1.2,1.2,3.1,0,4.2l-21.1,21.1C475,684.4,473.1,684.4,472,683.2z"/>
	<path id="XMLID_75_" class="st8" d="M506.2,683.2l-2.1-2.1c-1.2-1.2-1.2-3.1,0-4.2l21.1-21.1c1.2-1.2,3.1-1.2,4.2,0l2.1,2.1
		c1.2,1.2,1.2,3.1,0,4.2l-21.1,21.1C509.3,684.4,507.4,684.4,506.2,683.2z"/>
	<g id="XMLID_61_">
		<line id="XMLID_74_" class="st6" x1="576.9" y1="690.4" x2="593.2" y2="706.8"/>
		<line id="XMLID_70_" class="st6" x1="566.2" y1="701" x2="582.6" y2="717.4"/>
		<line id="XMLID_64_" class="st6" x1="588.4" y1="678.8" x2="604.8" y2="695.2"/>
		<line id="XMLID_63_" class="st6" x1="599" y1="668.2" x2="615.4" y2="684.6"/>
		<line id="XMLID_62_" class="st6" x1="609.6" y1="657.6" x2="626" y2="674"/>
	</g>
	<rect id="XMLID_60_" x="381.4" y="254.5" class="st8" width="238" height="27.3"/>
	<g id="XMLID_57_">
		<line id="XMLID_59_" class="st8" x1="411.4" y1="325.5" x2="509.1" y2="325.5"/>
		<line id="XMLID_58_" class="st8" x1="561.4" y1="325.5" x2="592.7" y2="325.5"/>
	</g>
	<g id="XMLID_37_">
		<line id="XMLID_56_" class="st8" x1="485.2" y1="504.6" x2="485.2" y2="511.8"/>
		<line id="XMLID_46_" class="st8" x1="495.1" y1="504.6" x2="495.1" y2="511.8"/>
		<line id="XMLID_45_" class="st8" x1="504.9" y1="504.6" x2="504.9" y2="511.8"/>
		<line id="XMLID_41_" class="st8" x1="514.8" y1="504.6" x2="514.8" y2="511.8"/>
	</g>
</g>
</svg>
