<?xml version="1.0" encoding="utf-8"?>
<!-- Generator: Adobe Illustrator 25.0.1, SVG Export Plug-In . SVG Version: 6.00 Build 0)  -->
<svg version="1.1" id="Layer_1" xmlns="http://www.w3.org/2000/svg" xmlns:xlink="http://www.w3.org/1999/xlink" x="0px" y="0px"
	 viewBox="0 0 1000 1000" style="enable-background:new 0 0 1000 1000;" xml:space="preserve">
<style type="text/css">
	.st0{fill:#D82435;}
	.st1{opacity:0.15;}
	.st2{fill:none;stroke:#262626;stroke-width:14;stroke-linecap:round;stroke-linejoin:round;stroke-miterlimit:10;}
	.st3{fill:none;stroke:#262626;stroke-width:8;stroke-linecap:round;stroke-linejoin:round;stroke-miterlimit:10;}
	.st4{fill:#FFFFFF;}
	.st5{opacity:0.6;}
	.st6{fill:none;stroke:#DF5E4C;stroke-width:3;stroke-linecap:round;stroke-linejoin:round;stroke-miterlimit:10;}
	.st7{opacity:0.67;}
	.st8{fill:none;stroke:#F7931E;stroke-width:4;stroke-linecap:round;stroke-linejoin:round;stroke-miterlimit:10;}
	.st9{opacity:0.7;}
	.st10{opacity:0.4;}
	.st11{fill:none;stroke:#622F2F;stroke-width:5;stroke-linecap:round;stroke-linejoin:round;stroke-miterlimit:10;}
	.st12{fill:none;stroke:#8DC838;stroke-width:3;stroke-linecap:round;stroke-miterlimit:10;}
	.st13{fill:none;stroke:#8DC838;stroke-width:4;stroke-miterlimit:10;}
	.st14{opacity:0.8;fill:none;stroke:#8DC838;stroke-width:4;stroke-miterlimit:10;enable-background:new    ;}
	
		.st15{opacity:0.74;fill:none;stroke:#622F2F;stroke-width:3;stroke-linecap:round;stroke-linejoin:round;stroke-miterlimit:10;enable-background:new    ;}
	.st16{fill:#EAA772;}
	.st17{opacity:0.25;}
	.st18{fill:none;stroke:#442F2F;stroke-width:8;stroke-linecap:round;stroke-linejoin:round;stroke-miterlimit:10;}
	.st19{opacity:0.3;}
	.st20{fill:#5B3E40;}
	.st21{fill:#442F2F;}
	.st22{fill:#D83634;}
	.st23{opacity:0.3;fill:#D83634;enable-background:new    ;}
	.st24{opacity:0.2;fill:#FFFFFF;enable-background:new    ;}
	.st25{fill:#8DC838;}
	.st26{fill:#73B727;}
	.st27{fill:#FBB03B;}
	.st28{fill:#F99A29;}
</style>
<rect id="XMLID_3_" class="st0" width="1000" height="1000"/>
<g id="XMLID_85_" class="st1">
	<polyline id="XMLID_86_" class="st2" points="625.9,290 655,213.4 742.8,197 	"/>
	<line id="XMLID_95_" class="st3" x1="261.4" y1="684.2" x2="771.8" y2="684.2"/>
	<g id="XMLID_84_">
		<polygon id="XMLID_1_" class="st3" points="700.6,684.2 561.1,684.2 518.9,380.1 742.8,380.1 		"/>
		<path id="XMLID_82_" class="st3" d="M771.8,380.1H488.4v-11.8c0-23,18.7-41.7,41.7-41.7H730c23,0,41.7,18.7,41.7,41.7L771.8,380.1
			L771.8,380.1z"/>
		<path id="XMLID_83_" class="st4" d="M731.1,326.6h-202v-0.9c0-19.8,16-35.8,35.8-35.8h130.5c19.8,0,35.8,16,35.8,35.8L731.1,326.6
			L731.1,326.6z"/>
		<path id="XMLID_87_" class="st3" d="M731.1,326.6h-202v-0.9c0-19.8,16-35.8,35.8-35.8h130.5c19.8,0,35.8,16,35.8,35.8L731.1,326.6
			L731.1,326.6z"/>
		<polygon id="XMLID_100_" class="st4" points="717.2,564.6 730.6,467.6 531.1,467.6 544.5,564.6 		"/>
		<polygon id="XMLID_93_" class="st3" points="717.2,564.6 730.6,467.6 531.1,467.6 544.5,564.6 		"/>
	</g>
</g>
<g id="XMLID_126_">
	<g id="XMLID_122_" class="st5">
		<line id="XMLID_124_" class="st6" x1="301" y1="516.1" x2="305.6" y2="516.1"/>
		<line id="XMLID_123_" class="st6" x1="303.3" y1="513.8" x2="303.3" y2="518.4"/>
	</g>
	<g id="XMLID_4_" class="st7">
		<line id="XMLID_89_" class="st6" x1="771.8" y1="535.5" x2="776.4" y2="535.5"/>
		<line id="XMLID_88_" class="st6" x1="774.1" y1="533.2" x2="774.1" y2="537.8"/>
	</g>
	<g id="XMLID_119_">
		<line id="XMLID_121_" class="st8" x1="252.7" y1="516.1" x2="242.7" y2="516.1"/>
		<line id="XMLID_120_" class="st8" x1="247.7" y1="511.1" x2="247.7" y2="521.1"/>
	</g>
	<g id="XMLID_116_" class="st9">
		<line id="XMLID_118_" class="st8" x1="747.9" y1="500" x2="737.6" y2="500"/>
		<line id="XMLID_117_" class="st8" x1="742.8" y1="494.8" x2="742.8" y2="505.2"/>
	</g>
	<g id="XMLID_113_" class="st10">
		<line id="XMLID_115_" class="st11" x1="288.5" y1="604.5" x2="298.5" y2="604.5"/>
		<line id="XMLID_114_" class="st11" x1="293.5" y1="599.5" x2="293.5" y2="609.5"/>
	</g>
	<g id="XMLID_97_" class="st5">
		<line id="XMLID_109_" class="st12" x1="670.4" y1="604.5" x2="677.8" y2="604.5"/>
		<line id="XMLID_108_" class="st12" x1="674.1" y1="600.8" x2="674.1" y2="608.2"/>
	</g>
	<circle id="XMLID_92_" class="st13" cx="742.8" cy="570.6" r="4.8"/>
	<circle id="XMLID_91_" class="st14" cx="278.4" cy="555.1" r="3.8"/>
	<circle id="XMLID_90_" class="st15" cx="730.6" cy="631.4" r="3.3"/>
</g>
<g>
	<g id="XMLID_96_">
		<path id="XMLID_13_" class="st16" d="M586.4,684H413.6c-35.7,0-64.6-28.8-64.6-64.5v-0.1c0-6.3,5.1-11.5,11.5-11.5h279.1
			c6.3,0,11.5,5.2,11.5,11.6v-0.1C651,655.1,622.1,684,586.4,684z"/>
		<g id="XMLID_98_" class="st17">
			<path id="XMLID_72_" class="st16" d="M414,619.5L414,619.5c0-6.4,5.1-11.6,11.5-11.6h-65c-6.3,0-11.5,5.2-11.5,11.5v0.1
				c0,35.7,28.9,64.5,64.6,64.5h65C442.9,684,414,655.2,414,619.5z"/>
			<path id="XMLID_102_" class="st16" d="M349.2,620.1h301.5c-1.1-6-5.7-10.6-11.2-10.6h-279C355,609.4,350.4,614,349.2,620.1z"/>
		</g>
	</g>
	<path id="XMLID_2_" class="st18" d="M586.4,684H413.6c-35.7,0-64.6-28.8-64.6-64.5v-0.1c0-6.3,5.1-11.5,11.5-11.5h279.1
		c6.3,0,11.5,5.2,11.5,11.6v-0.1C651,655.1,622.1,684,586.4,684z"/>
	<g id="XMLID_70_">
		<path id="XMLID_11_" class="st16" d="M512.1,380.2h-24.9c-76.5,0-138.1,42.7-138.1,94.2v-0.1c0,11.1,12.9,19.9,29.3,19.9H621
			c16.4,0,30.1-8.8,30.1-19.9l0,0C651,422.9,588.6,380.2,512.1,380.2z"/>
		<path id="XMLID_71_" class="st16" d="M512.1,380.2h-24.9c-76.5,0-138.1,42.7-138.1,94.2v-0.1c0,11.1,12.9,19.9,29.3,19.9H621
			c16.4,0,30.1-8.8,30.1-19.9l0,0C651,422.9,588.6,380.2,512.1,380.2z"/>
		<g id="XMLID_77_" class="st19">
			<path id="XMLID_78_" class="st16" d="M349,474.5C349,474.5,349,474.4,349,474.5c0-0.1,0-0.1,0-0.1V474.5z"/>
			<path id="XMLID_79_" class="st16" d="M532.4,381.3c-6.6-0.7-13.4-1-20.4-1h-24.9c-76.5,0-138.1,42.7-138.1,94.2
				c0,11,12.9,19.8,29.3,19.8h39.3v-16.9C426.9,426.2,467.7,387.9,532.4,381.3z"/>
		</g>
		<path id="XMLID_12_" class="st18" d="M512.1,380.2h-24.9c-76.5,0-138.1,42.7-138.1,94.2v-0.1c0,11.1,12.9,19.9,29.3,19.9H621
			c16.4,0,30.1-8.8,30.1-19.9l0,0C651,422.9,588.6,380.2,512.1,380.2z"/>
	</g>
	<g id="XMLID_46_">
		<path id="XMLID_15_" class="st20" d="M657.1,575.3c0,18-14.6,32.6-32.6,32.6H375.6c-18,0-32.6-14.6-32.6-32.6l0,0
			c0-18,14.6-32.6,32.6-32.6h248.9C642.5,542.7,657.1,557.3,657.1,575.3L657.1,575.3z"/>
		<g id="XMLID_49_" class="st5">
			<circle id="XMLID_48_" class="st21" cx="359.9" cy="583.1" r="2.3"/>
			<circle id="XMLID_50_" class="st21" cx="375.4" cy="593.4" r="2.3"/>
			<circle id="XMLID_51_" class="st21" cx="365.6" cy="593.4" r="2.3"/>
			<circle id="XMLID_54_" class="st21" cx="359.9" cy="575.2" r="2.3"/>
			<circle id="XMLID_53_" class="st21" cx="373.1" cy="580.8" r="2.3"/>
			<circle id="XMLID_68_" class="st21" cx="409.1" cy="587.7" r="2.3"/>
			<circle id="XMLID_69_" class="st21" cx="451.4" cy="583.1" r="2.3"/>
			<circle id="XMLID_52_" class="st21" cx="611.6" cy="593.4" r="2.3"/>
			<circle id="XMLID_56_" class="st21" cx="597.4" cy="593.4" r="2.3"/>
			<circle id="XMLID_57_" class="st21" cx="588.6" cy="593.4" r="2.3"/>
			<circle id="XMLID_58_" class="st21" cx="593.2" cy="587.7" r="2.3"/>
			<circle id="XMLID_59_" class="st21" cx="635.5" cy="575.2" r="2.3"/>
			<circle id="XMLID_60_" class="st21" cx="633.2" cy="587.7" r="2.3"/>
			<circle id="XMLID_61_" class="st21" cx="613.9" cy="572.9" r="2.3"/>
			<circle id="XMLID_62_" class="st21" cx="531.6" cy="593.4" r="2.3"/>
			
				<ellipse id="XMLID_63_" transform="matrix(0.1602 -0.9871 0.9871 0.1602 -156.5067 1002.8486)" class="st21" cx="511.1" cy="593.4" rx="2.3" ry="2.3"/>
			<circle id="XMLID_64_" class="st21" cx="519.2" cy="593.4" r="2.3"/>
			<circle id="XMLID_65_" class="st21" cx="488.4" cy="593.4" r="2.3"/>
			<circle id="XMLID_66_" class="st21" cx="478.6" cy="589.9" r="2.3"/>
			<circle id="XMLID_67_" class="st21" cx="448.2" cy="592.2" r="2.3"/>
		</g>
		<g id="XMLID_94_" class="st1">
			<path id="XMLID_73_" class="st20" d="M406.3,590.3v-30c0-9.7,7.9-17.6,17.6-17.6h-48.4c-18,0-32.6,14.6-32.6,32.6l0,0
				c0,18,14.6,32.6,32.6,32.6H424C414.2,607.9,406.3,600,406.3,590.3z"/>
			<path id="XMLID_99_" class="st20" d="M624.4,547.7H375.6c-18,0-32.6,14.6-32.6,32.6l0,0c0,0.5,0,0.9,0,1.4
				c7.3-1.8,17-3.5,26.6-3.5c9.8,0,14.3,1.7,19.6,3.7c5.6,2.1,11.9,4.4,23.8,4.4s18.2-2.4,23.8-4.4c5.3-2,9.8-3.7,19.6-3.7
				s14.3,1.7,19.6,3.7c5.6,2.1,11.9,4.4,23.8,4.4s18.2-2.4,23.8-4.5c5.3-2,9.8-3.7,19.6-3.7s14.3,1.7,19.6,3.7
				c5.6,2.1,11.9,4.5,23.8,4.5c11.9,0,18.2-2.4,23.8-4.5c5.3-2,9.8-3.7,19.6-3.7c9.7,0,14.2,1.7,19.4,3.7c2.2,0.8,4.7,1.8,7.6,2.5
				c0.2-1.3,0.3-2.7,0.3-4.1l0,0C657.1,562.3,642.5,547.7,624.4,547.7z"/>
		</g>
		<path id="XMLID_5_" class="st18" d="M657.1,575.3c0,18-14.6,32.6-32.6,32.6H375.6c-18,0-32.6-14.6-32.6-32.6l0,0
			c0-18,14.6-32.6,32.6-32.6h248.9C642.5,542.7,657.1,557.3,657.1,575.3L657.1,575.3z"/>
	</g>
	<g id="XMLID_44_">
		<path id="XMLID_16_" class="st22" d="M651,535.4c0,4-3.2,7.2-7.2,7.2H356.2c-4,0-7.2-3.2-7.2-7.2v-16.9c0-4,3.2-7.2,7.2-7.2h287.5
			c4,0,7.2,3.2,7.2,7.2L651,535.4L651,535.4z"/>
		<path id="XMLID_55_" class="st22" d="M651,535.4c0,4-3.2,7.2-7.2,7.2H356.2c-4,0-7.2-3.2-7.2-7.2v-16.9c0-4,3.2-7.2,7.2-7.2h287.5
			c4,0,7.2,3.2,7.2,7.2L651,535.4L651,535.4z"/>
		<path id="XMLID_75_" class="st23" d="M403.9,535.4v-16.9c0-4,3.2-7.2,7.2-7.2h-54.9c-4,0-7.2,3.2-7.2,7.2v16.9
			c0,4,3.2,7.2,7.2,7.2h54.9C407.1,542.7,403.9,539.4,403.9,535.4z"/>
		<rect id="XMLID_45_" x="520.7" y="511.2" class="st24" width="22.7" height="31.4"/>
		<rect id="XMLID_47_" x="550.4" y="511.2" class="st24" width="6.6" height="31.4"/>
		<path id="XMLID_7_" class="st18" d="M651,535.4c0,4-3.2,7.2-7.2,7.2H356.2c-4,0-7.2-3.2-7.2-7.2v-16.9c0-4,3.2-7.2,7.2-7.2h287.5
			c4,0,7.2,3.2,7.2,7.2L651,535.4L651,535.4z"/>
	</g>
	<g id="XMLID_74_">
		<path id="XMLID_14_" class="st25" d="M326.5,533.2L326.5,533.2c11.3-23.5,39.5-38.9,70.9-38.9h205.3c31.4,0,59.5,15.5,70.9,38.9
			l0,0c-21.7,0-21.7-19.3-43.4-19.3s-21.7,19.3-43.4,19.3s-21.7-19.3-43.4-19.3s-21.7,19.3-43.4,19.3c-21.7,0-21.7-19.3-43.4-19.3
			c-21.7,0-21.7,19.3-43.4,19.3c-21.7,0-21.7-19.3-43.4-19.3S348.2,533.2,326.5,533.2z"/>
		<path id="XMLID_80_" class="st26" d="M634.1,500c-12-6.1-16.6-5.8-31.5-5.8H419h-5h-16.7c-31.4,0-59.5,15.5-70.9,38.9l0,0
			c21.7,0,21.7-19.3,43.4-19.3c13.9,0,25,11.6,32.5,17.3l2.4-2.7c4.5-5.1,8-11,10.4-17.3c2.6-6.6,8.9-11,16-11L634.1,500z"/>
		<path id="XMLID_8_" class="st18" d="M326.5,533.2L326.5,533.2c11.3-23.5,39.5-38.9,70.9-38.9h205.3c31.4,0,59.5,15.5,70.9,38.9
			l0,0c-21.7,0-21.7-19.3-43.4-19.3s-21.7,19.3-43.4,19.3s-21.7-19.3-43.4-19.3s-21.7,19.3-43.4,19.3c-21.7,0-21.7-19.3-43.4-19.3
			c-21.7,0-21.7,19.3-43.4,19.3c-21.7,0-21.7-19.3-43.4-19.3S348.2,533.2,326.5,533.2z"/>
	</g>
	<g id="XMLID_76_">
		<path id="XMLID_9_" class="st27" d="M328.6,564.6c-1,4.6,4.2,8.5,9.5,7.1c8.3-2.2,19.9-4.6,31.5-4.6c21.7,0,21.7,8.1,43.4,8.1
			c21.7,0,21.7-8.1,43.4-8.1c21.7,0,21.7,8.1,43.4,8.1c21.7,0,21.7-8.1,43.4-8.1s21.7,8.1,43.4,8.1s21.7-8.1,43.3-8.1
			c17.5,0,20.6,5.3,32.8,7.3c5.1,0.9,9.7-3,8.7-7.3l-0.9-1.9c-6.5-13.7-22.3-22.7-39.8-22.7H368.1
			C350.9,542.7,335.4,551.3,328.6,564.6L328.6,564.6z"/>
		<path id="XMLID_81_" class="st28" d="M656,549.7c-7.2-4.4-16-7-25.4-7H418.5h-7.4h-6.4h-36.6c-17.2,0-32.8,8.6-39.5,22l0,0
			c-1,4.6,4.2,8.5,9.5,7.1c8.3-2.2,19.9-4.6,31.5-4.6c10.6,0,16,1.9,21.3,3.9l2-1.6c2.8-2.2,6-6,8.7-9.7
			c4.7-6.4,12.2-10.1,20.1-10.1L656,549.7L656,549.7z"/>
		<path id="XMLID_6_" class="st18" d="M328.6,564.6c-1,4.6,4.2,8.5,9.5,7.1c8.3-2.2,19.9-4.6,31.5-4.6c21.7,0,21.7,8.1,43.4,8.1
			c21.7,0,21.7-8.1,43.4-8.1c21.7,0,21.7,8.1,43.4,8.1c21.7,0,21.7-8.1,43.4-8.1s21.7,8.1,43.4,8.1s21.7-8.1,43.3-8.1
			c17.5,0,20.6,5.3,32.8,7.3c5.1,0.9,9.7-3,8.7-7.3l-0.9-1.9c-6.5-13.7-22.3-22.7-39.8-22.7H368.1
			C350.9,542.7,335.4,551.3,328.6,564.6L328.6,564.6z"/>
	</g>
	<path id="XMLID_17_" class="st18" d="M417.6,655L417.6,655c-6.2,0-11.3-5-11.3-11.3v-35.8h22.5v35.8
		C428.9,649.9,423.8,655,417.6,655z"/>
	<path id="XMLID_10_" class="st22" d="M417.6,655L417.6,655c-6.2,0-11.3-5-11.3-11.3v-35.8h22.5v35.8
		C428.9,649.9,423.8,655,417.6,655z"/>
	<path id="XMLID_20_" class="st22" d="M456,632.2L456,632.2c-5,0-9.1-4.1-9.1-9.1v-15.3H465v15.3C465.1,628.2,461,632.2,456,632.2z"
		/>
	<path id="XMLID_19_" class="st18" d="M456,632.2L456,632.2c-5,0-9.1-4.1-9.1-9.1v-15.3H465v15.3C465.1,628.2,461,632.2,456,632.2z"
		/>
	<path id="XMLID_18_" class="st18" d="M417.6,655L417.6,655c-6.2,0-11.3-5-11.3-11.3v-35.8h22.5v35.8
		C428.9,649.9,423.8,655,417.6,655z"/>
	<path id="XMLID_22_" class="st22" d="M565.7,661.8L565.7,661.8c-9.3,0-16.9-7.6-16.9-16.9v-37h33.8v37
		C582.6,654.3,575.1,661.8,565.7,661.8z"/>
	<path id="XMLID_21_" class="st18" d="M565.7,661.8L565.7,661.8c-9.3,0-16.9-7.6-16.9-16.9v-37h33.8v37
		C582.6,654.3,575.1,661.8,565.7,661.8z"/>
	<g>
		<circle id="XMLID_42_" class="st21" cx="392.5" cy="639.8" r="3.6"/>
		<circle id="XMLID_41_" class="st21" cx="596.1" cy="661.8" r="2"/>
		<circle id="XMLID_40_" class="st21" cx="496.1" cy="660.8" r="1.5"/>
		<circle id="XMLID_39_" class="st21" cx="483.8" cy="636.5" r="3.9"/>
		<circle id="XMLID_37_" class="st21" cx="457.6" cy="655.7" r="1.5"/>
		<circle id="XMLID_38_" class="st21" cx="526.4" cy="645.9" r="6.1"/>
		<circle id="XMLID_103_" class="st21" cx="600.8" cy="638.2" r="2.8"/>
		<circle id="XMLID_101_" class="st21" cx="509.4" cy="632.1" r="2.1"/>
	</g>
	<g id="XMLID_24_">
		<circle id="XMLID_23_" class="st21" cx="427.9" cy="423.8" r="3.9"/>
		<circle id="XMLID_25_" class="st21" cx="487.7" cy="438.8" r="3.9"/>
		<circle id="XMLID_34_" class="st21" cx="510.2" cy="452.1" r="2"/>
		<circle id="XMLID_33_" class="st21" cx="581.7" cy="428.5" r="3"/>
		
			<ellipse id="XMLID_43_" transform="matrix(0.1602 -0.9871 0.9871 0.1602 27.5184 841.3441)" class="st21" cx="508.2" cy="404.5" rx="6.1" ry="6.1"/>
		<circle id="XMLID_30_" class="st21" cx="554.9" cy="416.9" r="4.7"/>
		<circle id="XMLID_31_" class="st21" cx="453.7" cy="439.9" r="2.4"/>
		<circle id="XMLID_27_" class="st21" cx="526.4" cy="428.5" r="4"/>
		<circle id="XMLID_26_" class="st21" cx="480.3" cy="412.2" r="1.5"/>
		<circle id="XMLID_32_" class="st21" cx="437.1" cy="454.7" r="1.5"/>
		<circle id="XMLID_36_" class="st21" cx="599.8" cy="432.4" r="0.8"/>
		<circle id="XMLID_35_" class="st21" cx="456.1" cy="410.6" r="1.5"/>
		<circle id="XMLID_28_" class="st21" cx="568.5" cy="452.6" r="1.5"/>
		<circle id="XMLID_29_" class="st21" cx="544.8" cy="438.8" r="1.2"/>
	</g>
	<line id="XMLID_110_" class="st8" x1="357.8" y1="398.4" x2="365.8" y2="404.5"/>
	<line id="XMLID_111_" class="st8" x1="366.8" y1="385.9" x2="374.3" y2="397.4"/>
	<line id="XMLID_112_" class="st8" x1="383.5" y1="378.8" x2="383.5" y2="392.6"/>
</g>
</svg>
